<svg width="350" height="456" viewBox="0 0 350 456" fill="none" xmlns="http://www.w3.org/2000/svg">
<g clip-path="url(#clip0_32_809)">
<path d="M96.6505 444.28C96.6505 445.192 95.855 445.76 94.6034 445.76C93.1239 445.76 91.9306 445.59 88.9662 445.59C86.0017 445.59 84.7554 445.76 83.2175 445.76C81.6796 445.76 81.1121 445.075 81.1121 444.163C81.1121 442.058 84.4107 442.853 84.4107 440.122C84.4107 439.268 84.2994 438.754 84.241 438.245L83.0478 429.823C82.5334 425.952 81.1705 423.051 77.9833 423.051C75.4801 423.051 72.6323 424.987 72.6323 430.677V438.987C72.6323 443.198 76.0476 441.947 76.0476 444.222C76.0476 444.964 75.4801 445.818 74.1119 445.818C72.7437 445.818 71.2641 445.648 68.3633 445.648C65.4624 445.648 64.0942 445.818 62.7313 445.818C61.3684 445.818 60.7956 445.022 60.7956 444.222C60.7956 441.947 64.0942 443.198 64.0942 438.987V412.408C64.0942 408.823 60.3395 410.414 60.3395 407.852C60.3395 406.601 61.8191 405.858 65.8018 404.039C69.5565 402.39 70.2989 402.22 70.983 402.22C72.2929 402.22 72.6323 403.302 72.6323 404.723V422.197C74.3983 419.18 77.6385 416.565 82.1356 416.565C87.9957 416.565 90.6738 421.572 91.4693 427.723L92.8375 438.309C93.5216 443.373 96.6505 441.835 96.6505 444.285V444.28Z" fill="black"/>
<path d="M97.9604 431.812C97.9604 422.765 105.189 416.046 115.318 416.046C125.447 416.046 131.593 422.532 131.593 431.07C131.593 440.292 124.137 446.778 114.236 446.778C104.335 446.778 97.9604 440.292 97.9604 431.807V431.812ZM122.376 433.408C122.376 427.66 119.078 420.373 113.727 420.373C109.574 420.373 107.183 423.73 107.183 429.479C107.183 435.227 110.428 442.456 115.832 442.456C120.043 442.456 122.376 439.099 122.376 433.408Z" fill="black"/>
<path d="M169.903 431.245C169.903 440.409 163.587 446.555 155.33 446.555C150.722 446.555 148.272 445.187 146.506 443.707V449.169C146.506 453.322 150.488 451.959 150.488 454.462C150.488 455.205 149.863 456 148.553 456C147.132 456 145.307 455.83 142.237 455.83C139.389 455.83 137.968 456 136.599 456C135.231 456 134.664 455.205 134.664 454.462C134.664 452.129 137.962 453.38 137.962 449.169V426.97C137.962 423.327 134.261 424.923 134.261 422.415C134.261 421.105 135.682 420.368 139.723 418.602C143.425 416.894 143.992 416.725 144.729 416.725C146.379 416.725 146.495 418.602 146.495 419.456V421.9C148.659 418.772 152.132 416.263 157.08 416.263C164.367 416.263 169.888 422.07 169.888 431.234L169.903 431.245ZM160.851 433.408C160.851 426.864 157.494 422.25 153.225 422.25C149.523 422.25 146.511 425.496 146.511 430.444V432.666C146.511 438.128 149.587 442.286 154.137 442.286C157.892 442.286 160.851 439.327 160.851 433.408Z" fill="black"/>
<path d="M176.336 444.222L174.459 440.181C173.605 438.362 172.979 437.333 172.979 436.309C172.979 435.227 173.722 434.66 174.459 434.66C175.196 434.66 175.827 435.174 176.623 435.97C180.038 439.274 184.307 442.286 189.032 442.286C192.05 442.286 193.816 440.748 193.816 438.929C193.816 436.426 190.459 435.912 185.962 434.888C179.815 433.52 173.61 431.186 173.61 425.268C173.61 420.145 178.277 416.56 184.482 416.56C187.728 416.56 190.289 417.472 191.312 417.472C192.453 417.472 192.453 416.332 193.757 416.332C195.062 416.332 195.635 417.414 196.377 418.554L198.482 421.858C199.278 423.051 199.962 424.303 199.962 425.157C199.962 426.01 199.336 426.578 198.652 426.578C197.798 426.578 197.173 425.952 196.43 425.326C193.243 422.654 189.202 420.49 185.675 420.49C183.4 420.49 181.862 421.572 181.862 423.11C181.862 425.443 184.821 425.957 189.488 427.092C195.863 428.572 202.067 430.508 202.067 436.882C202.067 442.917 196.319 446.274 189.09 446.274C185.108 446.274 182.716 445.25 181.634 445.25C180.213 445.25 180.096 446.73 178.675 446.73C177.482 446.73 176.856 445.362 176.342 444.227L176.336 444.222Z" fill="black"/>
<path d="M227.22 440.181C227.22 441.093 226.595 442.116 225.799 442.912C223.805 444.959 220.963 446.385 216.975 446.385C212.138 446.385 208.436 443.596 208.436 440.181C208.436 438.987 208.665 434.602 208.665 430.677V421.455H205.647C204.395 421.455 203.542 420.771 203.542 419.689C203.542 418.549 204.284 417.981 205.477 417.297C209.121 415.42 210.94 413.596 212.822 409.671C214.132 407.566 214.641 406.654 215.781 406.654C216.635 406.654 217.203 407.221 217.203 408.701V417.181H225.226C226.139 417.181 226.648 417.637 226.648 418.549C226.648 419.005 226.536 419.689 226.478 420.028C226.308 420.994 225.852 421.45 224.94 421.45H217.197V435.62C217.197 440 218.619 441.14 220.613 441.14C221.981 441.14 222.946 440.456 224.139 439.433C224.537 439.093 225.051 438.637 225.73 438.637C226.695 438.637 227.21 439.374 227.21 440.175L227.22 440.181Z" fill="black"/>
<path d="M258.748 438.812C258.748 439.268 258.578 439.725 258.233 440.292C256.356 443.251 251.117 446.778 244.175 446.778C235.409 446.778 228.864 440.859 228.864 431.637C228.864 422.415 236.209 416.041 244.572 416.041C252.936 416.041 257.608 421.847 257.608 427.421C257.608 429.07 257.093 429.357 256.07 429.696L238.993 434.93C240.759 438.515 244 441.135 248.157 441.135C251.005 441.135 253.339 440.053 255.444 438.287C256.356 437.603 256.812 437.322 257.38 437.322C258.233 437.322 258.748 438.176 258.748 438.802V438.812ZM237.519 428.455C237.519 429.367 237.578 430.274 237.747 431.128L247.537 427.941C248.449 427.655 248.905 427.198 248.905 426.175C248.905 423.555 246.63 420.368 243.385 420.368C239.969 420.368 237.524 423.444 237.524 428.45L237.519 428.455Z" fill="black"/>
<path d="M288.859 420.373C288.859 421.969 288.117 424.075 286.924 426.917C286.467 428.057 285.842 428.736 284.877 428.736C283.964 428.736 283.397 427.994 282.941 427.087C281.917 425.04 280.947 423.841 279.414 423.841C277.192 423.841 273.724 426.859 273.724 433.743V438.977C273.724 443.187 277.823 441.708 277.823 444.211C277.823 444.953 277.256 445.807 275.888 445.807C274.408 445.807 272.642 445.638 269.455 445.638C266.607 445.638 265.127 445.807 263.765 445.807C262.402 445.807 261.829 445.012 261.829 444.211C261.829 441.936 265.186 443.187 265.186 438.977V426.965C265.186 423.322 261.431 424.918 261.431 422.41C261.431 421.158 262.852 420.363 266.893 418.597C270.648 416.889 271.332 416.719 271.958 416.719C273.326 416.719 273.724 417.859 273.724 419.45V424.117C275.432 419.79 279.473 416.491 283.572 416.491C286.759 416.491 288.865 418.31 288.865 420.363L288.859 420.373Z" fill="black"/>
<path d="M136.668 338.227C136.668 336.302 139.866 337.325 139.866 334.456V315.153C139.866 313.843 139.373 313.27 138.105 313.27H137.246C134.786 313.27 132.983 315.031 130.278 318.106C129.663 318.801 129.254 319.215 128.597 319.215C127.982 319.215 127.409 318.722 127.409 317.82C127.409 317.04 127.738 316.346 128.353 314.871L129.827 311.223C130.442 309.706 130.973 309.133 131.874 309.133C132.983 309.133 133.184 310.115 134.823 310.115H151.666C153.304 310.115 153.511 309.133 154.614 309.133C155.516 309.133 156.046 309.706 156.661 311.223L158.136 314.871C158.751 316.346 159.08 317.046 159.08 317.82C159.08 318.722 158.507 319.215 157.892 319.215C157.234 319.215 156.826 318.806 156.211 318.106C153.506 315.031 151.703 313.27 149.242 313.27H148.383C147.11 313.27 146.622 313.843 146.622 315.153V334.456C146.622 337.325 149.82 336.302 149.82 338.227C149.82 338.842 149.369 339.415 148.346 339.415C147.116 339.415 145.763 339.293 143.265 339.293C140.768 339.293 139.33 339.415 138.143 339.415C137.119 339.415 136.668 338.842 136.668 338.227Z" fill="black"/>
<path d="M191.583 338.227C191.583 338.842 191.132 339.415 190.109 339.415C189.085 339.415 187.934 339.293 185.643 339.293C183.352 339.293 182.244 339.415 181.215 339.415C180.186 339.415 179.741 338.842 179.741 338.227C179.741 336.503 182.239 337.368 182.239 334.499V327.08C182.239 326.342 181.995 326.056 181.008 326.056H171.091C170.11 326.056 169.861 326.342 169.861 327.08V334.499C169.861 337.368 172.401 336.509 172.401 338.227C172.401 338.842 171.95 339.415 170.927 339.415C169.903 339.415 168.753 339.293 166.462 339.293C164.171 339.293 163.062 339.415 162.033 339.415C161.005 339.415 160.559 338.842 160.559 338.227C160.559 336.503 163.057 337.368 163.057 334.499V314.909C163.057 312.04 160.559 312.899 160.559 311.138C160.559 310.523 161.09 309.993 162.155 309.993C163.221 309.993 164.165 310.115 166.456 310.115C168.747 310.115 169.856 309.993 170.922 309.993C171.988 309.993 172.396 310.523 172.396 311.138C172.396 312.899 169.856 312.04 169.856 314.909V321.835C169.856 322.614 170.1 322.901 171.086 322.901H181.003C181.984 322.901 182.233 322.614 182.233 321.835V314.909C182.233 312.04 179.736 312.899 179.736 311.138C179.736 310.523 180.144 309.993 181.21 309.993C182.276 309.993 183.342 310.115 185.638 310.115C187.934 310.115 189.08 309.993 190.103 309.993C191.127 309.993 191.578 310.523 191.578 311.138C191.578 312.899 189.037 312.04 189.037 314.909V334.499C189.037 337.368 191.578 336.509 191.578 338.227H191.583Z" fill="black"/>
<path d="M221.79 331.136C221.79 331.958 221.461 332.653 220.681 334.334L218.799 338.349C218.184 339.659 217.611 340.274 216.752 340.274C215.606 340.274 215.399 339.293 213.676 339.293H200.561C198.307 339.293 197.077 339.415 196.175 339.415C195.067 339.415 194.659 338.884 194.659 338.227C194.659 336.503 197.156 337.368 197.156 334.499V314.909C197.156 312.04 194.659 312.899 194.659 311.18C194.659 310.523 195.067 309.993 196.175 309.993C197.035 309.993 198.265 310.115 200.561 310.115H212.08C213.718 310.115 213.925 309.133 214.991 309.133C215.893 309.133 216.465 309.706 217.165 311.223L218.847 314.871C219.584 316.431 219.912 317.125 219.912 317.947C219.912 318.806 219.297 319.257 218.725 319.257C218.067 319.257 217.659 318.849 217.043 318.191C214.174 315.158 212.493 313.275 209.094 313.275H206.511C204.379 313.275 203.971 313.848 203.971 315.2V321.84C203.971 322.619 204.215 322.906 205.201 322.906H207.577C210.038 322.906 209.996 319.915 211.634 319.915C212.371 319.915 212.865 320.366 212.865 321.511C212.865 322.455 212.743 323.479 212.743 324.46C212.743 325.441 212.865 326.507 212.865 327.451C212.865 328.596 212.371 329.047 211.634 329.047C209.996 329.047 210.038 326.056 207.577 326.056H205.201C204.22 326.056 203.971 326.342 203.971 327.079V334.17C203.971 335.565 204.422 336.137 206.511 336.137H210.526C214.052 336.137 216.02 334.17 218.926 330.935C219.541 330.198 219.95 329.826 220.607 329.826C221.18 329.826 221.795 330.32 221.795 331.136H221.79Z" fill="black"/>
<path d="M28.2074 372.618C34.025 372.947 39.3123 376.335 39.5404 382.609C39.901 392.468 31.5166 395.294 23.2384 395.639C16.026 395.936 8.6917 395.528 1.48997 395.475C0.890713 395.284 0.142963 395.31 0.0209899 394.557C-0.249473 392.903 1.94605 392.691 2.18999 391.084C2.68319 380.297 2.25894 369.415 2.40742 358.591C2.33318 357.78 2.21651 356.915 1.74983 356.231C1.08163 355.245 -0.191138 355.176 0.0209899 353.702C0.12175 353.001 0.911926 352.959 1.48997 352.784C9.10005 352.8 16.8851 352.227 24.4952 352.62C30.403 352.922 35.9448 355.208 36.3903 361.863C36.7297 366.922 34.5129 370.173 29.8726 371.96C29.3264 372.173 28.5787 372.21 28.2074 372.618ZM14.3661 369.982H20.3428C20.8466 369.982 22.358 369.473 22.8353 369.203C25.0467 367.956 25.3968 364.812 25.0308 362.531C24.2407 357.61 17.9882 358.66 14.3661 358.538V369.982ZM14.3661 375.89V387.143C14.3661 387.435 14.8805 388.421 15.1192 388.655C16.6306 390.177 21.8065 389.901 23.7156 389.185C27.0513 387.934 27.7461 384.078 27.1521 380.907C26.0066 374.84 19.0064 375.996 14.3714 375.885L14.3661 375.89Z" fill="black"/>
<path d="M187.224 353.288C187.616 352.816 189.615 352.651 190.268 352.62C195.921 352.317 203.101 352.381 208.781 352.62C220.957 353.134 229.66 358.4 230.37 371.419C231.129 385.393 224.574 394.955 210.043 395.639C202.921 395.973 195.661 395.501 188.544 395.475C187.945 395.284 187.197 395.31 187.075 394.557C186.805 392.903 189 392.69 189.244 391.084C189.737 380.297 189.313 369.415 189.462 358.591C189.387 357.78 189.271 356.915 188.804 356.231C188.454 355.717 187.213 354.969 187.091 354.55C187.001 354.253 187.027 353.532 187.229 353.288H187.224ZM201.415 358.538V386.014C201.415 386.602 202.051 388.024 202.486 388.464C203.891 389.89 208.489 389.768 210.356 389.413C218.109 387.949 218.491 377.407 218.162 371.165C217.69 362.346 213.793 358.867 205.132 358.527C203.897 358.48 202.651 358.575 201.415 358.527V358.538Z" fill="black"/>
<path d="M58.9235 390.416C59.1144 392.033 59.8834 392.213 60.8167 393.179C61.5274 393.91 61.6228 394.897 60.541 395.3C60.0054 395.496 58.722 395.607 58.1121 395.639C55.6355 395.777 47.4739 395.968 45.4587 395.321C45.114 395.21 44.7587 395.151 44.6314 394.764C44.0587 393.014 46.5299 392.712 46.758 391.089C47.2512 380.302 46.8269 369.42 46.9754 358.596C46.9012 357.785 46.7845 356.921 46.3178 356.236C45.6337 355.224 44.1859 355.086 44.6314 353.5C44.6632 353.378 44.7056 353.336 44.7958 353.256C45.2943 352.8 47.0762 352.667 47.7815 352.63C52.8354 352.36 59.2046 352.424 64.2797 352.63C71.0784 352.906 78.4658 354.593 80.3855 362.065C82.0454 368.535 79.3461 375.227 73.1466 377.974L80.8999 388.962C81.7219 389.917 82.6394 390.983 83.5939 391.805C84.1402 392.277 85.5932 393.104 85.9167 393.507C86.4311 394.144 86.1183 394.844 85.4235 395.135C83.5091 395.936 76.6786 395.772 74.552 395.305C72.2663 394.801 71.4549 393.666 70.1504 391.906C67.3238 388.087 64.9055 383.946 62.01 380.17H58.9235V390.421V390.416ZM58.9235 374.506C62.9751 374.262 67.1753 373.626 68.2783 369.076C69.3867 364.509 68.5382 358.411 62.6357 358.411H58.9235V374.506Z" fill="black"/>
<path d="M268.755 391.8C268.903 392.855 269.545 393.062 270.197 393.624C270.85 394.186 270.897 395.151 269.99 395.422C268.601 395.841 263.531 395.745 261.892 395.629C261.097 395.575 259.845 395.56 259.745 394.632C259.644 393.725 260.933 393.343 261.352 392.579C261.59 392.144 261.643 391.656 261.707 391.174V358.591C261.633 357.78 261.516 356.915 261.049 356.231C260.381 355.245 259.108 355.176 259.32 353.702C259.384 353.267 259.607 353.155 259.999 353.001C261.659 352.355 269.439 352.503 271.587 352.62C273.135 352.705 274.811 352.869 275.797 354.2L293.738 383.564L294.433 383.617V357.589C294.279 356.608 294.385 355.881 293.616 355.139C293.16 354.698 292.439 354.592 292.407 353.823C292.381 353.235 292.662 352.986 293.192 352.842C294.597 352.461 300.94 352.455 302.393 352.784C302.992 352.922 303.406 353.129 303.374 353.818C303.337 354.72 301.841 354.889 301.507 356.364C301.152 368.863 301.449 381.416 301.354 393.937C301.258 394.738 300.781 395.072 300.065 395.294C298.278 395.851 290.869 395.835 289.108 395.22C288.668 395.066 288.286 394.801 287.936 394.504L269.354 364.085L268.744 364.064V391.794L268.755 391.8Z" fill="black"/>
<path d="M108.869 352.286C122.074 351.57 131.084 357.753 132.304 371.303C133.523 384.815 127.536 394.6 113.488 395.883C98.9413 397.214 89.1198 390.352 88.4994 375.328C87.9266 361.476 94.8897 353.044 108.869 352.286ZM108.869 359.079C102.489 359.731 100.935 366.758 100.707 372.051C100.368 379.809 101.545 390.283 111.849 389.222C119.825 388.4 120.515 378.414 120.228 372.178C119.889 364.881 117.518 358.199 108.869 359.079Z" fill="black"/>
<path d="M157.833 352.286C171.038 351.57 180.048 357.753 181.268 371.303C182.488 384.815 176.501 394.6 162.452 395.883C147.906 397.214 138.084 390.352 137.464 375.328C136.891 361.476 143.854 353.044 157.833 352.286ZM157.833 359.079C151.454 359.731 149.9 366.758 149.672 372.051C149.332 379.809 150.51 390.283 160.814 389.222C168.79 388.4 169.479 378.414 169.193 372.178C168.853 364.881 166.483 358.199 157.833 359.079Z" fill="black"/>
<path d="M330.033 352.285C334.795 352.015 344.93 353.383 347.157 358.368C348.748 361.927 346.086 368.116 341.705 364.446C338.672 361.905 337.362 359.19 332.77 358.909C320.943 358.188 319.766 373.647 322.19 381.93C324.343 389.286 330.558 390.718 337.426 388.978L337.489 388.665C337.245 385.441 337.797 381.787 337.468 378.616C337.415 378.117 337.23 377.412 336.959 376.988C336.572 376.378 335.379 375.704 335.188 375.238C334.875 374.469 335.119 373.896 335.872 373.599C337.299 373.032 344.262 373.138 346.112 373.254C347.38 373.334 349.082 373.451 349.072 375.079C348.753 379.878 349.48 385.192 349.072 389.928C348.812 392.945 344.384 394.022 341.891 394.7C327.949 398.508 311.573 394.976 309.308 378.584C307.298 364.053 315.131 353.139 330.033 352.291V352.285Z" fill="black"/>
<path d="M236.315 394.971C236.071 394.674 236.108 394 236.246 393.656C236.437 393.189 237.302 392.706 237.662 392.309C238.293 391.619 238.399 390.94 238.537 390.039V358.469C238.511 357.949 238.389 357.159 238.187 356.692C237.774 355.738 234.889 354.242 236.591 353.134C237.1 352.8 238.696 352.662 239.354 352.625C242.43 352.455 246.609 352.455 249.685 352.625C250.305 352.657 251.673 352.779 252.209 352.996C252.421 353.081 252.803 353.383 252.866 353.595C253.338 355.181 250.888 355.68 250.687 357.149C250.257 368.036 250.628 379.003 250.496 389.917C250.586 390.479 250.618 391.041 250.857 391.566C251.302 392.547 254.129 394.027 252.453 395.13C251.907 395.491 250.39 395.602 249.69 395.639C247.378 395.761 238.574 395.936 236.84 395.257C236.713 395.21 236.384 395.056 236.315 394.966V394.971Z" fill="black"/>
<g style="mix-blend-mode:darken">
<path d="M182.939 289.337C193.524 288.594 231.288 282.967 249.467 240.844C250.204 239.131 251.467 237.694 253.068 236.74C260.174 232.492 279.95 226.579 296.385 277.06C296.491 277.394 296.549 277.744 296.549 278.089C296.549 280.215 298.532 281.79 300.606 281.302L316.696 277.505C318.748 277.023 319.83 274.758 318.907 272.854L301.157 236.193C300.993 235.854 300.77 235.541 300.5 235.276L277.744 212.918C277.537 212.711 277.298 212.536 277.044 212.393L251.408 198.042C250.761 197.682 250.014 197.549 249.282 197.66L191.684 206.782C190.384 206.989 189.334 207.943 189.006 209.216L174.661 264.693C174.528 265.212 174.523 265.759 174.645 266.278L179.502 286.802C179.874 288.377 181.327 289.448 182.944 289.337H182.939Z" fill="#F3A758"/>
</g>
<g style="mix-blend-mode:darken">
<path d="M327.817 309.955C327.886 307.664 327.864 305.368 327.684 303.082C327.647 302.616 327.599 302.154 327.557 301.688L327.535 301.566C327.334 300.59 327.191 299.604 326.957 298.628C326.682 297.477 326.358 296.337 325.971 295.218C325.945 295.144 325.86 294.905 325.775 294.672C325.764 294.645 325.759 294.624 325.748 294.603C325.632 294.343 325.494 294.035 325.451 293.95C324.948 292.943 324.364 291.993 323.749 291.049C323.68 290.981 323.616 290.912 323.563 290.848C323.288 290.562 323.028 290.254 322.757 289.973C321.702 288.875 320.96 287.624 320.509 286.298C320.355 285.842 319.92 285.534 319.443 285.566C319.443 285.566 319.438 285.566 319.432 285.566C311.196 286.123 302.398 288.186 293.505 291.32C285.38 294.184 277.956 297.806 271.507 301.905C271.221 302.085 271.041 302.393 271.009 302.727L268.469 330.993C268.389 331.895 269.375 332.494 270.139 332.006C276.805 327.748 285.343 323.362 293.51 320.487C304.859 316.489 316.07 314.516 326.093 314.394C326.602 314.373 327.079 314.299 327.525 314.171C328.114 314.002 328.416 313.365 328.23 312.777C327.939 311.864 327.79 310.915 327.822 309.955H327.817Z" fill="#F3A758"/>
</g>
<g style="mix-blend-mode:darken">
<path d="M74.8545 316.319C74.5416 316.022 73.9211 315.593 73.7355 315.46L73.5923 315.359C72.887 314.94 72.187 314.522 71.4923 314.092C68.024 311.928 64.7201 309.531 61.0185 307.765C60.7215 307.622 60.4192 307.484 60.1169 307.352C59.9738 307.293 59.7722 307.214 59.5124 307.108C58.6427 306.789 57.7782 306.455 56.9032 306.148C55.0047 305.48 53.0902 304.859 51.1864 304.217C47.3787 302.929 43.7142 301.354 39.986 299.874C38.0875 299.121 36.1624 298.416 34.1843 297.907C33.8396 297.816 32.8585 297.647 32.5934 297.578L32.3123 297.53C31.5168 297.482 30.7161 297.482 29.9206 297.509C29.4698 297.525 29.0243 297.551 28.5736 297.588L28.3455 297.631C28.0433 297.7 27.0144 297.87 26.8129 297.917C26.0439 298.103 25.3015 298.352 24.5484 298.58L24.2143 298.713C23.8272 298.904 23.4507 299.105 23.0795 299.323C22.809 299.482 22.109 300.065 21.8969 300.219C21.8173 300.277 21.7431 300.341 21.6741 300.41C21.4726 300.606 21.2711 300.807 21.0696 301.009C21.9022 300.182 21.1173 301.083 20.7089 301.619L20.4756 302.07C20.4014 302.287 20.3271 302.51 20.2688 302.733C20.1998 302.982 20.0832 303.311 19.9824 303.645C19.9824 303.703 19.9665 303.825 19.9453 304.021C19.9082 304.387 19.8816 304.758 19.8604 305.124C19.7438 306.922 19.7544 308.725 19.7544 310.528C19.7544 311.324 19.6536 312.093 19.4733 312.819C19.2824 313.593 19.8127 314.378 20.6082 314.41C20.6135 314.41 20.6188 314.41 20.6241 314.41C30.6471 314.527 41.8581 316.505 53.2069 320.504C61.2518 323.335 69.6468 327.631 76.2651 331.826C77.1561 332.388 78.3069 331.683 78.2114 330.633L77.1773 319.135C77.1508 318.854 77.0341 318.589 76.8432 318.382C76.1962 317.688 75.5439 316.993 74.8545 316.341V316.319Z" fill="#F3A758"/>
</g>
<path d="M102.362 197.766C102.362 197.766 51.7591 200.503 27.2743 274.954" stroke="black" stroke-width="6.36383" stroke-linecap="round" stroke-linejoin="round"/>
<path d="M78.4448 322.62C71.5559 318 62.1587 313.031 53.2069 309.876C41.8581 305.877 30.6471 303.905 20.6241 303.783C9.08436 303.337 13.4542 274.016 27.2796 274.949C35.5155 275.506 44.3135 277.569 53.2069 280.703C61.5223 283.63 69.1006 287.359 75.6606 291.58" fill="#D98227"/>
<path d="M78.4448 322.62C71.5559 318 62.1587 313.031 53.2069 309.876C41.8581 305.877 30.6471 303.905 20.6241 303.783C9.08436 303.337 13.4542 274.016 27.2796 274.949C35.5155 275.506 44.3135 277.569 53.2069 280.703C61.5223 283.63 69.1006 287.359 75.6606 291.58" stroke="black" stroke-width="6.36383" stroke-linejoin="round"/>
<path d="M76.4083 251.997C75.1568 275.506 78.747 298.967 81.6108 322.28C81.8441 324.025 80.6191 325.621 78.8743 325.854C77.1296 326.088 75.5333 324.857 75.3 323.118C74.2871 311.265 73.3696 299.381 72.8234 287.454C72.3302 275.538 72.0385 263.6 73.3961 251.7C73.6666 249.775 76.525 250.024 76.4083 252.002V251.997Z" fill="black"/>
<path d="M268.262 322.62C275.151 318 284.548 313.031 293.5 309.876C304.849 305.877 316.059 303.905 326.083 303.783C337.622 303.337 333.252 274.016 319.427 274.949C311.191 275.506 302.393 277.569 293.5 280.703C285.184 283.63 277.606 287.359 271.046 291.58" fill="#D98227"/>
<path d="M268.262 322.62C275.151 318 284.548 313.031 293.5 309.876C304.849 305.877 316.059 303.905 326.083 303.783C337.622 303.337 333.252 274.016 319.427 274.949C311.191 275.506 302.393 277.569 293.5 280.703C285.184 283.63 277.606 287.359 271.046 291.58" stroke="black" stroke-width="6.36383" stroke-linejoin="round"/>
<path d="M273.316 251.695C275.718 275.426 273.21 299.307 271.428 322.964C271.279 324.714 269.741 326.014 267.986 325.87C266.236 325.722 264.937 324.184 265.08 322.434C267.36 304.833 269.641 287.253 270.42 269.54C270.654 263.669 270.707 257.799 270.293 251.981C270.192 250.051 273.029 249.748 273.31 251.695H273.316Z" fill="black"/>
<path d="M20.6188 303.788C19.2081 310.735 17.999 314.702 17.0285 322.62" stroke="black" stroke-width="6.36383" stroke-linecap="round" stroke-linejoin="round"/>
<path d="M244.344 197.766C244.344 197.766 294.947 200.503 319.432 274.954" stroke="black" stroke-width="6.36383" stroke-linecap="round" stroke-linejoin="round"/>
<path d="M326.088 303.788C327.498 310.735 328.708 314.702 329.678 322.62" stroke="black" stroke-width="6.36383" stroke-linecap="round" stroke-linejoin="round"/>
<g style="mix-blend-mode:overlay" opacity="0.2">
<path d="M75.4273 290.18C76.7265 306.89 78.4448 322.62 78.4448 322.62L56.113 310.963L64.8156 283.572L75.4273 290.18Z" fill="black"/>
</g>
<g style="mix-blend-mode:overlay" opacity="0.2">
<path d="M301.72 276.519C301.72 276.519 310.465 302.064 310.804 306.333L329.678 303.783L333.995 293.542L329.089 280.565L324.253 274.949L301.714 276.514L301.72 276.519Z" fill="black"/>
</g>
<g style="mix-blend-mode:overlay" opacity="0.2">
<path d="M279.335 284.999L285.168 314.044L268.267 322.625C268.267 322.625 266.989 301.534 271.057 291.591C274.313 283.625 280.814 288.499 279.34 285.004L279.335 284.999Z" fill="black"/>
</g>
<g style="mix-blend-mode:darken">
<path d="M271.81 251.843L282.432 285.269L272.541 290.641C272.541 290.641 275.124 259.697 271.81 251.838V251.843Z" fill="#F3A758"/>
</g>
<g style="mix-blend-mode:darken">
<path d="M74.9023 251.843L63.8133 286.743L75.5439 291.591C74.1863 274.477 73.1999 255.884 74.9023 251.843Z" fill="#F3A758"/>
</g>
<path d="M172.825 239.72L152.875 262.11C149.735 271.041 173.356 291.718 173.356 291.718C173.356 291.718 196.981 271.041 193.837 262.11L173.886 239.72H172.825Z" fill="#D98227" stroke="black" stroke-width="6.36383"/>
<path d="M175.217 262.476L173.282 280.576L171.638 262.444L175.217 262.476Z" fill="black"/>
<g style="mix-blend-mode:overlay" opacity="0.3">
<path d="M195.534 224.76L215.484 247.15C217.908 254.039 207.636 263.579 201.335 269.561C199.469 271.332 195.035 268.638 195.035 268.638C195.035 268.638 193.184 275.172 190.633 272.69C183.967 266.209 172.242 253.604 174.512 247.15L194.462 224.76H195.523H195.534Z" fill="black"/>
</g>
<path d="M200.837 219.457L220.787 241.847C223.927 250.777 200.307 271.454 200.307 271.454C200.307 271.454 176.681 250.777 179.826 241.847L199.776 219.457H200.837Z" fill="#D98227" stroke="black" stroke-width="6.36383"/>
<path d="M199.75 232.916C203.865 240.399 203.128 249.992 200.763 257.91C201.245 253.906 201.325 249.807 200.641 245.824C200.163 243.141 199.41 240.59 198.228 238.182C197.719 237.217 197.162 236.188 196.456 235.377L199.75 232.916Z" fill="black"/>
<g style="mix-blend-mode:overlay" opacity="0.3">
<path d="M151.178 224.76L131.227 247.15C128.698 254.341 140.54 265.966 146.405 271.454C147.821 272.78 152.588 268.548 152.588 268.548C152.588 268.548 154.678 274.037 155.489 273.252C162.028 266.963 174.528 253.8 172.189 247.15L152.238 224.76H151.178Z" fill="black"/>
</g>
<path d="M145.875 219.457L125.924 241.847C122.785 250.777 146.405 271.454 146.405 271.454C146.405 271.454 170.031 250.777 166.886 241.847L146.935 219.457H145.875Z" fill="#D98227" stroke="black" stroke-width="6.36383"/>
<path d="M150.679 234.369C148.006 238.919 146.882 244.323 146.85 249.589C146.813 252.904 147.338 256.213 148.134 259.427C145.424 253.142 144.247 246.179 145.238 239.359C145.583 236.984 146.119 234.608 147.078 232.38L150.679 234.369Z" fill="black"/>
<path d="M173.356 213.406L189.287 224.781C198.435 241.693 173.356 262.275 173.356 262.275C173.356 262.275 148.277 241.693 157.425 224.781L173.356 213.406Z" fill="#D98227" stroke="black" stroke-width="6.36383"/>
<g style="mix-blend-mode:overlay" opacity="0.3">
<path d="M167.506 248.073C164.818 241.359 167.671 233.425 173.356 233.425C179.041 233.425 181.894 241.353 179.205 248.073C182.53 242.647 185.405 235.239 181.979 228.907C181.979 228.907 183.522 219.594 172.735 219.594C161.949 219.594 164.733 228.907 164.733 228.907C161.307 235.239 164.186 242.647 167.506 248.073Z" fill="black"/>
</g>
<path d="M175.217 221.249L173.282 248.073L171.638 221.228L175.217 221.249Z" fill="black"/>
<g style="mix-blend-mode:overlay" opacity="0.3">
<path d="M215.023 208.06C215.023 208.06 239.746 221.557 221.891 252.183C220.533 254.511 215.553 258.801 213.209 257.396C205 252.48 186.407 238.437 185.352 211.661L215.023 208.065V208.06Z" fill="black"/>
</g>
<path d="M220.326 202.757C220.326 202.757 248.953 218.38 222.357 254.155C222.357 254.155 192.012 240.786 190.655 206.352L220.326 202.757Z" fill="#D98227" stroke="black" stroke-width="6.36383"/>
<path d="M217.494 214.132C220.994 218.295 221.249 229.225 221.339 234.634C220.639 231.447 219.812 228.138 218.772 225.062C217.971 222.798 217.112 220.554 215.856 218.555C215.532 218.062 215.187 217.526 214.747 217.171C214.747 217.171 214.699 217.144 214.795 217.235L217.494 214.132Z" fill="black"/>
<g style="mix-blend-mode:overlay" opacity="0.3">
<path d="M131.689 208.06C131.689 208.06 107.453 221.292 124.301 251.276C125.765 253.88 130.983 258.875 133.099 257.634C141.086 252.941 160.289 238.888 161.36 211.661L131.689 208.065V208.06Z" fill="black"/>
</g>
<path d="M126.385 202.757C126.385 202.757 97.7588 218.38 124.354 254.155C124.354 254.155 154.699 240.786 156.057 206.352L126.385 202.757Z" fill="#D98227" stroke="black" stroke-width="6.36383"/>
<path d="M131.105 217.155C129.695 219.191 129.154 222.808 128.708 225.598C128.385 228.032 128.199 230.524 128.098 232.99L128.024 235.483C127.759 234.003 127.404 232.009 127.202 230.546C126.64 226.308 126.189 222.013 126.842 217.722C127.043 216.641 127.239 215.585 127.86 214.62L131.105 217.15V217.155Z" fill="black"/>
<path d="M178.224 196.266C162.002 207.837 191.519 237.832 191.519 237.832C191.519 237.832 211.252 218.841 203.345 196.266H178.219H178.224Z" fill="#D98227" stroke="black" stroke-width="6.36383"/>
<path d="M190.65 200.158C193.185 203.139 193.847 207.095 194.224 210.839C194.68 216.524 193.821 222.373 192.622 227.926C192.93 222.941 192.919 217.754 192.034 212.838C191.525 210.261 190.766 207.567 189.483 205.286C189.016 204.523 188.565 203.78 187.897 203.202C187.892 203.308 190.639 200.142 190.65 200.158Z" fill="black"/>
<path d="M168.487 196.266C184.71 207.837 155.192 237.832 155.192 237.832C155.192 237.832 135.459 218.841 143.366 196.266H168.493H168.487Z" fill="#D98227" stroke="black" stroke-width="6.36383"/>
<path d="M158.411 201.346C156.751 205.477 156.301 210.017 155.951 214.461C155.707 217.807 155.712 221.562 155.802 224.945L155.961 228.456C155.054 223.948 154.238 219.054 153.893 214.472C153.564 209.609 153.347 204.586 154.598 199.803L158.411 201.346Z" fill="black"/>
<g style="mix-blend-mode:overlay" opacity="0.3">
<path d="M159.392 195.523C158.374 217.017 124.741 225.704 124.741 225.704C124.741 225.704 116.771 191.896 135.321 180.987L163.587 174.894L159.392 195.523Z" fill="black"/>
</g>
<path d="M160.692 187.786C159.78 206.989 129.732 214.747 129.732 214.747C129.732 214.747 122.609 184.54 139.182 174.798L164.436 169.357L160.686 187.786H160.692Z" fill="#D98227" stroke="black" stroke-width="6.36383"/>
<path d="M161.482 182.477C158.448 188.587 154.031 194.701 147.577 197.401C151.607 194.521 154.026 190.066 155.659 185.522C156.173 184.063 156.645 182.515 156.937 181.014L161.482 182.477Z" fill="black"/>
<path d="M149.921 184.084C149.963 184.053 149.852 184.074 149.783 184.084C148.701 184.291 147.635 184.747 146.659 185.288C143.881 186.821 141.579 189.34 140.115 192.235C139.93 192.601 139.601 193.174 139.468 193.556C139.145 194.367 138.652 195.529 138.45 196.377C137.989 197.798 137.718 199.4 137.448 200.874C137.225 198.843 137.029 196.637 137.199 194.585C137.565 187.823 141.144 181.035 147.211 177.678C147.381 177.593 147.503 177.519 147.794 177.402L149.921 184.084Z" fill="black"/>
<g style="mix-blend-mode:overlay" opacity="0.3">
<path d="M157.706 178.325C157.706 178.325 145.758 195.751 137.771 196.266L142.146 185.256L157.706 178.325Z" fill="black"/>
</g>
<g style="mix-blend-mode:overlay" opacity="0.3">
<path d="M186.63 196.054C187.648 217.547 221.281 226.234 221.281 226.234C221.281 226.234 229.251 192.426 210.701 181.518L182.435 175.424L186.63 196.054Z" fill="black"/>
</g>
<path d="M186.02 187.786C186.932 206.989 216.98 214.747 216.98 214.747C216.98 214.747 224.102 184.54 207.529 174.798L182.276 169.357L186.025 187.786H186.02Z" fill="#D98227" stroke="black" stroke-width="6.36383"/>
<path d="M189.769 181.014C190.777 185.659 192.633 190.22 195.56 194.017C196.584 195.274 197.766 196.425 199.129 197.406C195.958 196.149 193.237 193.863 190.984 191.297C188.698 188.619 186.736 185.681 185.23 182.483L189.774 181.019L189.769 181.014Z" fill="black"/>
<path d="M198.917 177.397C203.297 179.487 206.554 183.734 208.208 188.152C208.712 189.61 209.057 191.069 209.317 192.564C209.354 192.856 209.476 194.261 209.513 194.579C209.624 195.507 209.534 196.812 209.555 197.756C209.481 198.806 209.359 199.845 209.264 200.869C209.067 199.845 208.892 198.833 208.68 197.836C208.404 196.966 208.139 195.757 207.795 194.935C207.688 194.659 207.201 193.445 207.105 193.206C206.522 192.023 205.843 190.83 205.095 189.769C202.995 187.022 200.275 184.832 196.928 184.079C196.859 184.068 196.748 184.047 196.79 184.079L198.917 177.397Z" fill="black"/>
<g style="mix-blend-mode:overlay" opacity="0.3">
<path d="M188.586 178.325C188.586 178.325 200.535 195.751 208.521 196.266L204.146 185.256L188.586 178.325Z" fill="black"/>
</g>
<g style="mix-blend-mode:overlay" opacity="0.3">
<path d="M207.211 184.068L206.241 187.293L208.94 196.266C208.94 196.266 215.85 197.586 215.23 194.839C214.609 192.098 214.158 183.199 207.211 184.068Z" fill="black"/>
</g>
<path d="M213.612 181.274C214.524 210.34 243.231 225.789 243.231 225.789C256.043 198.207 241.12 175.361 241.12 175.361" fill="#C65F28"/>
<g style="mix-blend-mode:overlay" opacity="0.3">
<path d="M243.04 177.211C243.04 177.211 248.263 191.705 250.125 206.119C251.016 213.013 246.826 223.948 243.724 222.644C240.16 221.148 236.092 219.52 235.08 219.457C233.839 219.377 242.546 192.877 221.339 201.182C221.339 201.182 195.581 181.719 243.04 177.211Z" fill="black"/>
</g>
<path d="M229.989 182.769C233.839 191.472 235.758 200.943 236.294 210.404C235.371 205.843 234.099 201.367 232.433 197.035C230.795 192.797 228.87 188.629 226.419 184.816L229.989 182.769Z" fill="black"/>
<path d="M213.612 181.274C214.524 210.34 243.231 225.789 243.231 225.789C256.043 198.207 241.12 175.361 241.12 175.361" stroke="black" stroke-width="6.36383"/>
<path d="M133.094 181.274C132.182 210.34 103.476 225.789 103.476 225.789C90.6631 198.207 105.586 175.361 105.586 175.361" fill="#C65F28"/>
<g style="mix-blend-mode:overlay" opacity="0.3">
<path d="M101.72 180.743C101.72 180.743 104.213 192.331 108.848 192.877C113.483 193.423 122.747 187.834 127.027 197.401C131.307 206.968 129.52 182.154 129.52 182.154C129.52 182.154 113.122 176.973 101.715 180.743H101.72Z" fill="black"/>
</g>
<path d="M133.094 181.274C132.182 210.34 103.476 225.789 103.476 225.789C90.6631 198.207 105.586 175.361 105.586 175.361" stroke="black" stroke-width="6.36383"/>
<path d="M118.309 184.397C118.309 184.397 112.358 194.5 110.417 210.404Z" fill="#C65F28"/>
<path d="M120.08 185.442C115.848 192.018 113.053 199.49 111.16 207.068C110.884 208.171 110.667 209.29 110.417 210.409C110.656 205.817 111.229 201.256 112.21 196.754C113.239 192.172 114.549 187.643 116.537 183.358L120.08 185.447V185.442Z" fill="black"/>
<path d="M185.919 182.154C195.067 199.066 173.356 221.238 173.356 221.238C173.356 221.238 151.644 199.066 160.792 182.154L173.356 164.293L185.914 182.154H185.919Z" fill="#D98227" stroke="black" stroke-width="6.36383"/>
<g style="mix-blend-mode:overlay" opacity="0.3">
<path d="M167.771 202.014C165.205 195.603 167.931 188.03 173.356 188.03C178.781 188.03 181.507 195.603 178.94 202.014C182.111 196.833 184.858 189.764 181.592 183.718C181.592 183.718 183.066 174.83 172.767 174.83C162.468 174.83 165.125 183.718 165.125 183.718C161.853 189.764 164.6 196.833 167.777 202.014H167.771Z" fill="black"/>
</g>
<path d="M175.217 184.228L173.281 203.918L171.637 184.201L175.217 184.228Z" fill="black"/>
<path d="M186.434 180.727H161.302C161.302 180.727 165.688 166.939 173.356 166.939C181.024 166.939 186.439 180.727 186.439 180.727H186.434Z" fill="#D98227"/>
<path d="M191.09 144.952C197.671 144.252 210.876 157.77 218.322 158.714C225.762 159.658 231.203 144.443 234.194 144.443C237.185 144.443 246.444 166.494 246.444 170.62C246.444 174.751 235.631 188.735 195.417 180.738C184.323 178.532 175.292 168.079 173.282 167.782C171.272 168.079 162.24 178.532 151.146 180.738C110.932 188.735 100.119 174.751 100.119 170.62C100.119 166.488 109.373 144.443 112.369 144.443C115.366 144.443 120.801 159.658 128.242 158.714C135.682 157.77 148.887 144.252 155.474 144.952C155.474 144.952 165.375 152.127 173.282 152.127C181.189 152.127 191.09 144.952 191.09 144.952Z" fill="#C65F28"/>
<path d="M157.706 178.325C162.468 180.52 167.772 181.74 173.361 181.74C179.529 181.74 185.352 180.25 190.48 177.609" stroke="black" stroke-width="6.36383" stroke-linejoin="round"/>
<path d="M120.796 82.104C120.796 82.104 215.087 68.7823 222.808 99.9863C222.808 99.9863 230.98 135.783 210.107 154.036C210.107 154.036 208.67 156.688 215.023 158.661C221.382 160.634 246.434 135.953 235.589 80.985C235.589 80.985 155.192 56.3039 120.791 82.1093L120.796 82.104Z" fill="#F3A758"/>
<path d="M184.296 123.776L193.126 130.432L199.129 147.795L186.147 145.774L184.296 123.776Z" fill="#F3A758"/>
<path d="M113.016 81.4093C113.016 81.4093 101.805 153.522 129.96 159.154C129.96 159.154 145.626 143.976 160.559 145.769" stroke="black" stroke-width="6.36383" stroke-linecap="round" stroke-linejoin="round"/>
<path d="M160.432 146.851C150.276 147.673 141.706 153.697 134.049 159.971C133.184 160.687 132.336 161.514 131.508 162.246C129.594 163.932 127.531 165.353 125.32 166.589C120.934 168.976 115.461 170.763 110.497 169.177C109.871 168.976 109.898 168.026 110.545 167.878C114.978 166.748 118.537 164.314 122.079 161.609C124.816 159.557 127.192 157.096 129.753 154.89C134.515 150.923 139.818 147.646 145.769 145.604C150.504 144.019 155.829 143.271 160.697 144.692C161.869 145.042 161.668 146.792 160.437 146.851H160.432Z" fill="black"/>
<path d="M128.205 170.285C137.798 167.984 147.328 164.123 154.784 157.547C157.229 155.383 159.366 152.912 161.18 150.197C161.498 149.698 162.171 149.56 162.665 149.889C163.126 150.197 163.264 150.812 162.999 151.289C157.902 160.512 148.277 166.334 138.371 169.172C135.072 170.116 131.71 170.763 128.284 170.964C127.876 170.985 127.78 170.36 128.205 170.285Z" fill="black"/>
<path d="M233.696 81.4093C233.696 81.4093 244.907 153.522 216.752 159.154C216.752 159.154 201.086 143.976 186.153 145.769" stroke="black" stroke-width="6.36383" stroke-linecap="round" stroke-linejoin="round"/>
<path d="M186.02 144.692C195.905 142.046 206.188 146.941 214.047 152.599C217.844 155.277 220.915 158.799 224.638 161.609C228.18 164.314 231.739 166.748 236.167 167.878C236.809 168.021 236.856 168.986 236.22 169.177C228.323 171.532 219.504 166.335 213.909 161.063C209.343 157.027 204.279 153.358 198.885 150.6C194.94 148.606 190.777 147.148 186.259 146.851C185.06 146.782 184.853 145.026 186.02 144.698V144.692Z" fill="black"/>
<path d="M218.428 170.964C204.926 169.904 190.57 163.466 183.713 151.289C183.427 150.78 183.612 150.133 184.121 149.847C184.615 149.571 185.23 149.73 185.532 150.197C190.994 158.512 199.734 163.959 208.93 167.385C212.048 168.546 215.262 169.554 218.507 170.291C218.91 170.36 218.868 170.996 218.428 170.97V170.964Z" fill="black"/>
<path d="M110.932 118.224C110.81 137.241 109.097 149.046 109.097 149.046C107.39 159.239 100.273 166.918 95.8498 170.625C95.8498 170.625 109.293 183.379 133.582 183.379C151.798 183.379 165.412 176.008 173.26 164.436L173.361 164.288C181.194 175.939 194.844 183.379 213.135 183.379C237.424 183.379 250.867 170.625 250.867 170.625C246.444 166.918 239.328 159.239 237.62 149.046C237.62 149.046 235.907 137.247 235.785 118.224" stroke="black" stroke-width="6.36383"/>
<path d="M97.9233 113.695C101.689 112.385 105.454 114.644 106.302 118.484C107.565 122.387 108.063 126.672 109.543 130.421C109.638 130.676 109.834 131.042 109.914 131.19C109.903 131.19 109.877 131.164 109.76 131.095C109.452 130.867 108.535 130.867 108.296 131.174C108.307 131.19 108.44 131.084 108.599 130.915C108.768 130.74 108.965 130.522 109.32 130.193C111.091 128.597 113.711 130.74 112.539 132.776C110.518 136.541 107.04 136.234 105.263 132.437C103.571 128.74 102.659 124.906 102.007 120.998C101.8 119.831 101.927 118.489 101.264 117.492C100.586 116.416 99.1113 116.076 97.9339 115.769C96.9104 115.493 96.9104 113.976 97.9127 113.684L97.9233 113.695Z" fill="black"/>
<path d="M248.613 98.5385C243.321 98.2999 239.137 98.5651 238.124 103.078C237.111 107.591 235.366 122.97 235.78 129.695C235.843 129.96 237.312 149.82 241.343 150.701C245.373 151.581 245.665 150.017 249.319 143.897C252.973 137.777 259.867 116.028 259.273 107.708C259.071 104.865 253.906 98.7666 248.613 98.5332V98.5385Z" fill="#F3A758"/>
<path d="M248.438 115.875C246.55 116.241 244.997 117.163 244.901 119.226C244.848 119.698 244.8 120.329 244.731 120.791C244.27 124.063 243.427 127.107 242.345 130.305C241.672 131.975 241.152 133.582 239.566 134.828C237.721 136.149 235.658 135.104 234.671 133.508C233.977 132.564 234.178 131.233 235.127 130.538C235.997 129.902 237.19 130.018 237.917 130.777C238.108 130.978 238.262 131.121 238.346 131.18C238.415 131.249 238.458 131.164 238.055 131.015C237.864 130.952 237.556 130.936 237.328 130.989C237.095 131.042 236.957 131.121 236.888 131.164C236.755 131.249 236.814 131.206 236.867 131.1C238.484 127.632 238.924 123.554 240.006 119.826C240.128 119.375 240.335 118.738 240.468 118.282C240.977 116.156 242.674 114.13 244.838 113.568C246.041 113.186 250.029 113.059 249.499 115.058C249.356 115.562 248.894 115.774 248.433 115.875H248.438Z" fill="black"/>
<path d="M239.2 151.586C238.124 149.858 237.45 147.911 237.233 145.885C236.718 141.182 235.865 131.445 235.78 118.224C235.78 118.224 235.345 96.9264 247.372 98.3742C254.001 98.9257 259.469 104.526 258.605 115.238C258.027 122.461 255.736 127.812 252.623 135.502C249.934 145.684 246.19 148.94 239.206 151.592L239.2 151.586Z" stroke="black" stroke-width="6.36383" stroke-linecap="round"/>
<path d="M107.511 151.586C108.588 149.857 109.261 147.911 109.479 145.885C109.993 141.181 110.847 131.445 110.932 118.224C110.932 118.224 111.367 96.9263 99.3392 98.3741C92.7102 98.9256 87.2426 104.526 88.1071 115.238C88.6851 122.461 90.9761 127.812 94.0891 135.502C96.7778 145.684 100.522 148.94 107.506 151.592L107.511 151.586Z" stroke="black" stroke-width="6.36383"/>
<path d="M120.478 100.676C120.478 100.676 141.685 94.6725 162.41 100.676C162.41 100.676 171.118 131.604 142.894 132.802C114.671 134.001 120.483 100.676 120.483 100.676H120.478Z" stroke="black" stroke-width="6.36383" stroke-linecap="round" stroke-linejoin="round"/>
<path d="M136.133 112.958C136.133 112.958 143.769 117.073 153.586 112.958" stroke="black" stroke-width="5.30319" stroke-linecap="round" stroke-linejoin="round"/>
<path d="M184.296 123.776C187.261 128.252 194.802 132.426 203.823 132.808C232.046 134.006 226.234 100.681 226.234 100.681C226.234 100.681 205.026 94.6778 184.302 100.681C184.302 100.681 183.702 104.468 184.291 123.776" stroke="black" stroke-width="6.36383" stroke-linecap="round" stroke-linejoin="round"/>
<path d="M210.579 112.958C210.579 112.958 202.942 117.073 193.126 112.958" stroke="black" stroke-width="5.30319" stroke-linecap="round" stroke-linejoin="round"/>
<path d="M163.884 137.183C164.102 140.147 163.561 142.762 164.876 145.249C167.909 150.674 178.267 151.273 181.931 146.156C182.557 145.238 182.864 144.151 182.928 142.916L182.971 143.632C182.483 140.678 182.069 137.719 181.756 134.765C180.823 125.898 180.361 117.084 180.308 108.159L180.345 108.657C180.319 108.673 180.383 108.694 180.34 108.657C179.964 108.159 179.37 107.925 178.511 107.607C175.652 106.69 171.717 106.711 168.811 107.543C167.952 107.782 167.236 108.111 166.78 108.477C166.801 108.45 166.897 108.254 166.859 108.079C166.859 109.834 165.433 111.261 163.678 111.261C161.922 111.261 160.496 109.834 160.496 108.079C160.793 99.0158 178.903 98.6022 184.254 103.046C185.834 104.245 187.038 106.133 187.134 108.159C187.16 110.985 187.234 113.902 187.351 116.776C187.59 122.53 187.987 128.289 188.613 134.006C188.931 136.875 189.318 139.723 189.753 142.55C189.886 145.09 189.075 147.747 187.595 149.953C183.633 155.649 176.145 157.277 169.739 155.866C164.298 154.752 159.127 150.69 157.961 144.984C157.239 141.85 157.849 138.244 159.711 135.725C161.063 133.858 163.959 134.924 163.884 137.172V137.183Z" fill="black"/>
<path d="M226.234 100.676C229.511 101.556 232.693 102.452 235.716 103.524" stroke="black" stroke-width="6.36383"/>
<path d="M111.139 103.672C114.114 102.606 117.253 101.556 120.478 100.676" stroke="black" stroke-width="6.36383"/>
<path d="M95.2716 89.3322C97.202 93.6808 99.7846 94.2323 99.7846 95.8975C99.7846 97.7059 99.9331 98.3264 99.3392 98.3741" stroke="black" stroke-width="6.36383"/>
<path d="M247.367 98.3741C246.773 98.3264 246.922 97.7059 246.922 95.8975C246.922 94.2323 249.504 93.6755 251.435 89.3322" stroke="black" stroke-width="6.36383"/>
<path d="M98.0983 92.6998L101.036 98.0348L111.112 102.654L114.024 81.4093L98.0983 89.327V92.6998Z" fill="black"/>
<path d="M248.613 92.6998L245.675 98.0348L235.599 102.654L232.683 81.4093L248.613 89.327V92.6998Z" fill="black"/>
<path d="M244.747 50.2689C231.866 19.4203 202.9 3.26674 173.674 3.18188H173.038C143.812 3.26674 114.846 19.4203 101.964 50.2689" fill="#C65F28"/>
<path d="M244.747 50.2689C231.866 19.4203 202.9 3.26674 173.674 3.18188H173.038C143.812 3.26674 114.846 19.4203 101.964 50.2689" stroke="black" stroke-width="6.36383"/>
<path d="M123.469 39.0261C126.115 33.7123 129.573 28.897 133.508 24.4848C134.796 23.0264 136.186 21.6529 137.586 20.3111C137.824 20.0778 138.212 20.0884 138.44 20.3271C138.662 20.5551 138.662 20.921 138.45 21.1491C135.952 24.0181 133.683 27.0727 131.694 30.3077C129.742 33.4843 127.96 36.873 126.656 40.3466C125.765 42.5633 122.519 41.2269 123.469 39.0208V39.0261Z" fill="black"/>
<path d="M140.603 36.889C142.756 30.2441 146.013 24.0606 150.038 18.3862C151.348 16.5088 152.817 14.7429 154.301 13.0194C154.784 12.4572 155.686 13.136 155.256 13.7565C151.39 19.1976 148.367 25.2273 146.267 31.554C145.594 33.5904 144.952 35.7965 144.549 37.8595C143.918 40.6118 139.887 39.6308 140.603 36.889Z" fill="black"/>
<path d="M160.029 34.0624C161.461 28.038 163.37 22.2204 165.804 16.5407C166.599 14.658 167.506 12.8231 168.445 11.0094C168.599 10.7125 168.965 10.5958 169.262 10.7496C169.548 10.8981 169.665 11.2375 169.543 11.5239C167.273 17.0869 165.693 22.9098 164.521 28.7963C164.139 30.7585 163.789 32.7631 163.54 34.6935C163.131 37.1223 159.567 36.4913 160.034 34.0624H160.029Z" fill="black"/>
<path d="M220.04 40.3254C217.324 33.3199 213.177 26.8341 208.256 21.1544C207.752 20.587 208.558 19.7862 209.126 20.3112C214.816 25.7205 219.711 31.9835 223.243 39.0262C224.192 41.2429 220.915 42.5846 220.045 40.3254H220.04Z" fill="black"/>
<path d="M202.157 37.8276C201.277 33.5851 199.803 29.3584 198.047 25.3757C197.146 23.3499 196.165 21.3559 195.056 19.4256C193.975 17.4687 192.734 15.6073 191.456 13.7618C191.037 13.1466 191.906 12.4519 192.41 13.0193C195.433 16.4558 198.122 20.1945 200.397 24.1772C202.131 27.1682 203.637 30.3077 204.92 33.5267C205.345 34.6245 205.742 35.6745 206.108 36.889C206.437 37.9655 205.827 39.1004 204.751 39.4239C203.595 39.7845 202.354 39.0208 202.157 37.8223V37.8276Z" fill="black"/>
<path d="M183.172 34.6617C182.652 30.7638 181.846 26.7811 180.876 22.9469C179.9 19.0597 178.68 15.2414 177.174 11.5291C176.882 10.8291 177.901 10.3306 178.267 11.0147C181.12 16.4505 183.31 22.2098 185.081 28.0857C185.67 30.0585 186.205 32.0101 186.683 34.0677C187.149 36.5072 183.554 37.1383 183.172 34.667V34.6617Z" fill="black"/>
<path d="M172.873 72.8552C203.982 72.8552 232.693 78.2433 251.435 89.3322C252.798 87.0943 253.227 85.1215 253.471 78.7046C253.842 68.6445 253.795 65.102 252.654 60.6738C251.18 54.9676 247.113 52.9417 245.373 51.1228C226.86 41.699 201.219 35.8655 172.873 35.8655H173.833C145.488 35.8655 119.847 41.699 101.333 51.1228C99.5938 52.9417 95.5262 54.9676 94.0519 60.6738C92.9117 65.102 92.864 68.6445 93.2352 78.7046C93.4792 85.1268 93.9087 87.0943 95.2716 89.3322C114.013 78.2486 142.725 72.8552 173.833 72.8552H172.873Z" fill="#C65F28" stroke="black" stroke-width="6.36383"/>
<path d="M239.969 57.3911C240.552 57.6934 240.643 58.245 240.648 58.5472C240.499 63.2671 239.996 67.9869 239.142 72.6484C238.967 73.4121 238.299 73.4651 237.938 72.9401C237.779 72.7068 237.715 72.4257 237.758 72.1022C238.59 67.4301 239.083 62.7102 239.232 57.9851C239.28 57.354 239.709 57.2798 239.969 57.3858" fill="black"/>
<path d="M226.621 52.7985C227.151 52.9523 227.485 53.3713 227.501 53.891C227.379 58.6214 226.976 63.3678 226.292 68.0876C226.122 68.9414 225.147 68.9838 224.701 68.3475C224.494 68.0558 224.521 67.7853 224.531 67.6686C225.189 62.9435 225.581 58.1971 225.698 53.4614C225.746 52.825 226.276 52.7137 226.621 52.7932" fill="black"/>
<path d="M210.462 49.2826C211.067 49.3939 211.47 49.797 211.491 50.3114C211.406 55.0471 211.12 59.82 210.642 64.577C210.499 65.4732 209.28 65.5475 208.776 64.8846C208.585 64.63 208.59 64.402 208.595 64.2906C209.046 59.5283 209.317 54.7555 209.396 50.0197C209.444 49.378 210.059 49.2295 210.462 49.2879" fill="black"/>
<path d="M192.346 46.9279C193.004 46.9968 193.45 47.3733 193.476 47.8824C193.428 52.6235 193.28 57.407 193.031 62.1904C192.919 63.1556 191.514 63.267 190.968 62.5564C190.803 62.3442 190.803 62.1639 190.798 62.0472C191.015 57.2638 191.148 52.4803 191.19 47.7392C191.238 47.0976 191.906 46.9013 192.341 46.9332" fill="black"/>
<path d="M173.122 46.3499C173.801 46.3711 174.263 46.7158 174.3 47.2249C174.294 51.9659 174.289 56.7547 174.284 61.5435C174.22 62.4928 172.751 62.6996 172.178 62.0473C171.998 61.8458 171.988 61.6708 171.977 61.5541C171.95 56.7653 171.934 51.9765 171.94 47.2355C171.982 46.5885 172.672 46.3499 173.122 46.3499Z" fill="black"/>
<path d="M153.628 47.1029C154.307 47.0764 154.768 47.3893 154.805 47.8984C154.837 52.6394 154.98 57.4229 155.224 62.2064C155.213 63.1768 153.787 63.4897 153.156 62.8587C152.965 62.6677 152.944 62.4927 152.933 62.3814C152.657 57.6032 152.498 52.8197 152.461 48.0787C152.498 47.4264 153.177 47.1453 153.628 47.1082" fill="black"/>
<path d="M134.802 49.7811C135.427 49.7068 135.852 49.9879 135.894 50.4917C135.968 55.2275 136.249 59.995 136.737 64.752C136.774 65.7066 135.459 66.1149 134.865 65.5475C134.685 65.3725 134.653 65.1974 134.632 65.0861C134.117 60.3344 133.815 55.5722 133.741 50.8364C133.767 50.1841 134.388 49.85 134.802 49.7864" fill="black"/>
<path d="M118.828 53.6311C119.316 53.5251 119.672 53.7849 119.709 54.2781C119.815 59.0086 120.223 63.7496 120.918 68.4642C121.008 69.371 120.064 69.8748 119.518 69.4187C119.311 69.2437 119.263 69.021 119.242 68.9149C118.526 64.2057 118.107 59.4647 117.996 54.7395C118.012 54.0872 118.505 53.716 118.828 53.6311Z" fill="black"/>
<path d="M106.647 58.3563C107.167 58.1972 107.273 58.6639 107.294 58.9556C107.427 63.6754 107.93 68.39 108.779 73.0515C108.901 73.9 108.302 74.4621 107.861 74.1227C107.655 73.9636 107.596 73.7038 107.575 73.5924C106.705 68.9415 106.196 64.2323 106.058 59.5124C106.058 58.8548 106.414 58.4624 106.647 58.3616" fill="black"/>
</g>
<defs>
<clipPath id="clip0_32_809">
<rect width="349.199" height="456" fill="white"/>
</clipPath>
</defs>
</svg>
