<svg width="352" height="460" viewBox="0 0 352 460" fill="none" xmlns="http://www.w3.org/2000/svg">
<path d="M103.561 199.762C103.561 199.762 52.6514 202.515 28.0184 277.417" stroke="black" stroke-width="6.40232" stroke-linecap="round" stroke-linejoin="round"/>
<path d="M79.4984 325.37C72.5679 320.723 63.1138 315.724 54.1079 312.549C42.6904 308.527 31.4117 306.542 21.328 306.419C9.71845 305.971 14.1147 276.472 28.0238 277.411C36.3094 277.971 45.1606 280.047 54.1079 283.2C62.4736 286.145 70.0977 289.896 76.6974 294.143" fill="#D98227"/>
<path d="M79.4984 325.37C72.5679 320.723 63.1138 315.724 54.1079 312.549C42.6904 308.527 31.4117 306.542 21.328 306.419C9.71845 305.971 14.1147 276.472 28.0238 277.411C36.3094 277.971 45.1606 280.047 54.1079 283.2C62.4736 286.145 70.0977 289.896 76.6974 294.143" stroke="black" stroke-width="6.40232" stroke-linejoin="round"/>
<path d="M77.4497 254.32C76.1906 277.971 79.8026 301.575 82.6836 325.029C82.9184 326.784 81.6859 328.39 79.9306 328.624C78.1753 328.859 76.5694 327.621 76.3347 325.871C75.3156 313.947 74.3926 301.991 73.8431 289.992C73.3469 278.003 73.0535 265.994 74.4193 254.021C74.6914 252.085 77.5671 252.335 77.4497 254.326V254.32Z" fill="black"/>
<path d="M21.3227 306.424C19.9035 313.414 18.687 317.404 17.7107 325.37" stroke="black" stroke-width="6.40232" stroke-linecap="round" stroke-linejoin="round"/>
<path d="M246.402 199.762C246.402 199.762 297.311 202.515 321.944 277.417" stroke="black" stroke-width="6.40232" stroke-linecap="round" stroke-linejoin="round"/>
<path d="M270.464 325.37C277.394 320.723 286.848 315.724 295.854 312.549C307.272 308.527 318.551 306.542 328.634 306.419C340.244 305.971 335.847 276.472 321.938 277.411C313.653 277.971 304.802 280.047 295.854 283.2C287.489 286.145 279.864 289.896 273.265 294.143" fill="#D98227"/>
<path d="M270.464 325.37C277.394 320.723 286.848 315.724 295.854 312.549C307.272 308.527 318.551 306.542 328.634 306.419C340.244 305.971 335.847 276.472 321.938 277.411C313.653 277.971 304.802 280.047 295.854 283.2C287.489 286.145 279.864 289.896 273.265 294.143" stroke="black" stroke-width="6.40232" stroke-linejoin="round"/>
<path d="M275.548 254.016C277.965 277.891 275.442 301.916 273.649 325.717C273.499 327.477 271.952 328.785 270.186 328.64C268.426 328.491 267.119 326.944 267.263 325.183C269.557 307.475 271.851 289.789 272.635 271.969C272.87 266.063 272.923 260.157 272.507 254.304C272.406 252.362 275.26 252.058 275.543 254.016H275.548Z" fill="black"/>
<path d="M328.64 306.424C330.059 313.414 331.275 317.404 332.251 325.37" stroke="black" stroke-width="6.40232" stroke-linecap="round" stroke-linejoin="round"/>
<path d="M246.807 51.3718C233.848 20.3366 204.707 4.08536 175.304 4H174.664C145.261 4.08536 116.12 20.3366 103.16 51.3718" fill="#C65F28"/>
<path d="M246.807 51.3718C233.848 20.3366 204.707 4.08536 175.304 4H174.664C145.261 4.08536 116.12 20.3366 103.16 51.3718" stroke="black" stroke-width="6.40232"/>
<path d="M124.795 40.0611C127.457 34.7152 130.936 29.8707 134.895 25.4318C136.191 23.9646 137.589 22.5828 138.997 21.2329C139.237 20.9982 139.627 21.0089 139.856 21.249C140.08 21.4784 140.08 21.8465 139.867 22.0759C137.354 24.9623 135.071 28.0354 133.07 31.2899C131.107 34.4858 129.314 37.895 128.001 41.3896C127.105 43.6197 123.84 42.2752 124.795 40.0558V40.0611Z" fill="black"/>
<path d="M142.033 37.911C144.199 31.2259 147.475 25.005 151.525 19.2963C152.842 17.4076 154.32 15.6309 155.814 13.897C156.3 13.3314 157.207 14.0143 156.774 14.6386C152.885 20.1125 149.844 26.1787 147.731 32.5437C147.054 34.5925 146.408 36.8119 146.003 38.8874C145.368 41.6564 141.313 40.6693 142.033 37.911Z" fill="black"/>
<path d="M161.576 35.0672C163.017 29.0064 164.937 23.1536 167.386 17.4395C168.187 15.5455 169.099 13.6995 170.043 11.8748C170.198 11.5761 170.566 11.4587 170.865 11.6134C171.153 11.7628 171.27 12.1042 171.148 12.3923C170.401 14.265 169.686 16.1484 169.083 18.0744C167.264 23.7992 165.919 29.7693 165.108 35.7021C164.697 38.1457 161.112 37.5108 161.582 35.0672H161.576Z" fill="black"/>
<path d="M221.95 41.3682C219.933 36.1023 217.026 31.1138 213.691 26.5575C212.571 25.0103 211.349 23.5377 210.101 22.0812C209.594 21.5103 210.405 20.7047 210.975 21.2329C213.825 23.9219 216.46 26.8403 218.829 29.9667C220.622 32.3143 222.27 34.7952 223.748 37.3614C224.244 38.2417 224.708 39.0794 225.173 40.0557C225.583 40.9254 225.215 41.9604 224.346 42.3766C223.417 42.8247 222.281 42.3446 221.95 41.3629V41.3682Z" fill="black"/>
<path d="M203.96 38.8553C203.074 34.5871 201.591 30.3349 199.825 26.3281C198.918 24.29 197.931 22.284 196.816 20.3419C195.727 18.3732 194.479 16.5005 193.193 14.6439C192.772 14.025 193.647 13.326 194.153 13.8969C197.194 17.3542 199.899 21.1155 202.188 25.1223C203.933 28.1314 205.448 31.2899 206.739 34.5284C207.166 35.6328 207.566 36.6892 207.934 37.911C208.265 38.994 207.652 40.1358 206.569 40.4612C205.405 40.824 204.157 40.0557 203.96 38.85V38.8553Z" fill="black"/>
<path d="M184.859 35.6702C184.336 31.7488 183.526 27.742 182.549 23.8846C181.567 19.9738 180.34 16.1324 178.825 12.3978C178.532 11.6935 179.556 11.192 179.924 11.8802C182.795 17.3489 184.998 23.143 186.78 29.0545C187.372 31.0392 187.911 33.0026 188.391 35.0727C188.861 37.5269 185.243 38.1618 184.859 35.6755V35.6702Z" fill="black"/>
<path d="M241.285 156.669L114.3 160.916L98.0385 144.648L89.1339 107.632L103.16 88.7347C103.16 88.7347 149.903 72.905 174.498 74.0947C199.094 75.2845 239.605 85.1601 239.605 85.1601L247.735 99.4266L260.828 106.282L252.953 146.03L241.28 156.669H241.285Z" fill="#F6BB7E"/>
<path d="M174.45 241.969L154.379 264.494C151.22 273.479 174.984 294.281 174.984 294.281C174.984 294.281 198.752 273.479 195.589 264.494L175.517 241.969H174.45Z" fill="#D98227" stroke="black" stroke-width="6.40232"/>
<path d="M202.631 221.583L222.702 244.109C225.861 253.093 202.098 273.895 202.098 273.895C202.098 273.895 178.329 253.093 181.493 244.109L201.564 221.583H202.631Z" fill="#D98227" stroke="black" stroke-width="6.40232"/>
<path d="M147.336 221.583L127.265 244.109C124.107 253.093 147.87 273.895 147.87 273.895C147.87 273.895 171.639 253.093 168.475 244.109L148.403 221.583H147.336Z" fill="#D98227" stroke="black" stroke-width="6.40232"/>
<path d="M174.984 215.495L191.011 226.94C200.214 243.954 174.984 264.66 174.984 264.66C174.984 264.66 149.753 243.954 158.957 226.94L174.984 215.495Z" fill="#D98227" stroke="black" stroke-width="6.40232"/>
<path d="M222.238 204.782C222.238 204.782 251.038 220.5 224.282 256.492C224.282 256.492 193.753 243.041 192.387 208.399L222.238 204.782Z" fill="#D98227" stroke="black" stroke-width="6.40232"/>
<path d="M127.729 204.782C127.729 204.782 98.9295 220.5 125.686 256.492C125.686 256.492 156.214 243.041 157.58 208.399L127.729 204.782Z" fill="#D98227" stroke="black" stroke-width="6.40232"/>
<path d="M179.882 198.252C163.561 209.893 193.257 240.07 193.257 240.07C193.257 240.07 213.11 220.964 205.155 198.252H179.876H179.882Z" fill="#D98227" stroke="black" stroke-width="6.40232"/>
<path d="M170.086 198.252C186.407 209.893 156.71 240.07 156.71 240.07C156.71 240.07 136.858 220.964 144.813 198.252H170.091H170.086Z" fill="#D98227" stroke="black" stroke-width="6.40232"/>
<path d="M162.243 189.721C161.325 209.04 131.096 216.845 131.096 216.845C131.096 216.845 123.931 186.455 140.603 176.655L162.238 189.721H162.243Z" fill="#D98227" stroke="black" stroke-width="6.40232"/>
<path d="M160.584 190.921C159.997 192.202 159.09 193.194 158.13 194.154C155.558 196.63 152.373 198.247 149.054 199.394L150.383 198.348C152.805 196.283 155.067 193.818 156.209 190.836C156.321 190.516 156.545 189.902 156.508 189.662L160.589 190.921H160.584Z" fill="black"/>
<path d="M187.234 189.721C188.151 209.04 218.381 216.845 218.381 216.845C218.381 216.845 225.546 186.455 208.873 176.655L187.239 189.721H187.234Z" fill="#D98227" stroke="black" stroke-width="6.40232"/>
<path d="M151.941 185.997C151.983 185.965 151.871 185.986 151.802 185.997C150.714 186.205 149.641 186.664 148.66 187.208C145.864 188.75 143.548 191.284 142.076 194.197C141.889 194.565 141.558 195.141 141.425 195.525C141.099 196.342 140.603 197.51 140.401 198.364C139.936 199.794 139.664 201.405 139.392 202.888C139.168 200.845 138.971 198.625 139.141 196.56C139.51 189.758 143.111 182.929 149.214 179.552C149.385 179.466 149.508 179.392 149.801 179.274L151.941 185.997Z" fill="black"/>
<path d="M193.465 189.662C193.433 189.625 193.465 189.779 193.476 189.859C193.54 190.185 193.641 190.51 193.764 190.836C194.906 193.818 197.168 196.283 199.59 198.348L200.919 199.394L199.318 198.807C195.423 197.174 191.422 194.805 189.384 190.921L193.465 189.662Z" fill="black"/>
<path d="M200.166 179.269C204.573 181.371 207.849 185.645 209.514 190.089C210.02 191.556 210.367 193.023 210.629 194.528C210.666 194.821 210.789 196.235 210.826 196.555C210.938 197.489 210.847 198.801 210.869 199.751C210.794 200.807 210.671 201.853 210.575 202.883C210.378 201.853 210.202 200.834 209.988 199.831C209.711 198.956 209.444 197.74 209.097 196.913C208.991 196.635 208.5 195.413 208.404 195.173C207.817 193.984 207.134 192.783 206.382 191.716C204.269 188.952 201.532 186.749 198.165 185.991C198.096 185.981 197.984 185.959 198.027 185.991L200.166 179.269Z" fill="black"/>
<path d="M187.724 189.721C188.642 209.04 218.872 216.845 218.872 216.845C218.872 216.845 226.037 186.455 209.364 176.655L187.73 189.721H187.724Z" stroke="black" stroke-width="6.40232"/>
<path d="M215.484 183.169C216.401 212.412 245.281 227.953 245.281 227.953C258.171 200.205 243.158 177.22 243.158 177.22" fill="#C65F28"/>
<path d="M215.484 183.169C216.401 212.412 245.281 227.953 245.281 227.953C258.171 200.205 243.158 177.22 243.158 177.22" stroke="black" stroke-width="6.40232"/>
<path d="M230.364 186.312C230.364 186.312 236.35 196.475 238.303 212.476Z" fill="#C65F28"/>
<path d="M232.146 185.26C235.998 193.813 237.785 203.16 238.303 212.476C237.39 208.005 236.142 203.582 234.515 199.324C232.898 195.173 231.02 191.071 228.577 187.357L232.14 185.255L232.146 185.26Z" fill="black"/>
<path d="M134.478 183.169C133.561 212.412 104.681 227.953 104.681 227.953C91.7909 200.205 106.804 177.22 106.804 177.22" fill="#C65F28"/>
<path d="M134.478 183.169C133.561 212.412 104.681 227.953 104.681 227.953C91.7909 200.205 106.804 177.22 106.804 177.22" stroke="black" stroke-width="6.40232"/>
<path d="M119.604 186.312C119.604 186.312 113.618 196.475 111.665 212.476Z" fill="#C65F28"/>
<path d="M121.386 187.363C117.128 193.978 114.316 201.496 112.412 209.12C112.134 210.229 111.916 211.355 111.665 212.481C111.905 207.861 112.481 203.272 113.468 198.743C114.503 194.133 115.821 189.577 117.822 185.266L121.386 187.368V187.363Z" fill="black"/>
<path d="M187.623 184.055C196.826 201.069 174.984 223.376 174.984 223.376C174.984 223.376 153.141 201.069 162.344 184.055H187.623Z" fill="#D98227" stroke="black" stroke-width="6.40232"/>
<path d="M176.856 187.741L174.909 205.951L173.255 187.709L176.856 187.741Z" fill="black"/>
<path d="M192.387 166.08H160.082V185.287H192.387V166.08Z" fill="#F6BB7E"/>
<path d="M176.856 264.863L174.909 283.067L173.255 264.831L176.856 264.863Z" fill="black"/>
<path d="M176.856 223.386L174.909 250.372L173.255 223.365L176.856 223.386Z" fill="black"/>
<path d="M252.959 172.456C259.462 174.761 233.186 183.617 233.186 183.617C233.186 183.617 218.92 188.003 203.341 184.055C191.128 180.96 177.171 169.265 174.909 169.601C172.887 169.9 163.721 180.048 152.64 182.635C135.471 186.648 114.493 183.617 114.493 183.617L97.0089 172.456L115.298 142.557C115.298 142.557 121.055 158.835 132.2 158.835C140.267 158.835 136.879 148.815 147.432 150.154C150.436 150.533 155.852 147.193 160.088 148.239C167.456 150.058 174.376 155.879 181.21 151.088C185.606 148.004 185.505 150.538 189.891 146.281C195.653 140.69 215.847 168.043 221.555 160.916C247.058 129.085 238.591 146.58 238.938 144.472C238.938 144.472 246.46 170.151 252.964 172.456H252.959Z" fill="#C65F28"/>
<path d="M114.279 82.7006C114.279 82.7006 103 155.25 131.325 160.916C131.325 160.916 147.086 145.646 162.11 147.449" stroke="black" stroke-width="6.40232" stroke-linecap="round" stroke-linejoin="round"/>
<path d="M161.982 148.538C151.765 149.365 143.143 155.426 135.439 161.737C134.569 162.457 133.715 163.29 132.883 164.026C130.957 165.723 128.882 167.153 126.657 168.396C122.245 170.797 116.739 172.594 111.745 170.999C111.115 170.797 111.142 169.841 111.793 169.692C116.253 168.556 119.833 166.107 123.397 163.386C126.15 161.321 128.54 158.846 131.117 156.626C135.908 152.635 141.244 149.338 147.23 147.284C151.994 145.689 157.351 144.936 162.248 146.366C163.428 146.718 163.225 148.479 161.987 148.538H161.982Z" fill="black"/>
<path d="M121.786 102.084C121.786 102.084 143.121 96.0441 163.972 102.084C163.972 102.084 172.732 133.199 144.338 134.405C115.944 135.61 121.791 102.084 121.791 102.084H121.786Z" stroke="black" stroke-width="6.40232" stroke-linecap="round" stroke-linejoin="round"/>
<path d="M137.536 114.44C137.536 114.44 145.218 118.58 155.094 114.44" stroke="black" stroke-width="5.33527" stroke-linecap="round" stroke-linejoin="round"/>
<path d="M96.4273 90.6714C98.3693 95.0463 100.968 95.6012 100.968 97.2765C100.968 99.0958 101.117 99.72 100.519 99.768C93.8503 100.323 88.3497 105.957 89.2193 116.734C89.8009 124.001 92.1057 129.384 95.2375 137.12C97.9425 147.364 101.709 150.64 108.736 153.307C107.018 163.562 100.893 168.945 97.0035 172.456C97.0035 172.456 110.528 185.287 134.964 185.287" stroke="black" stroke-width="6.40232"/>
<path d="M129.559 172.114C139.211 169.799 148.798 165.915 156.3 159.299C158.759 157.122 160.909 154.636 162.734 151.904C163.054 151.403 163.732 151.264 164.228 151.595C164.692 151.904 164.831 152.523 164.564 153.003C159.437 162.281 149.753 168.14 139.787 170.994C136.469 171.944 133.086 172.595 129.639 172.797C129.229 172.819 129.133 172.189 129.559 172.114Z" fill="black"/>
<path d="M100.519 99.7681C112.62 98.3115 112.182 119.738 112.182 119.738C112.06 138.87 110.336 150.747 110.336 150.747C108.618 161.001 101.458 168.726 97.0089 172.456" stroke="black" stroke-width="6.40232"/>
<path d="M99.0949 115.182C103.128 113.832 106.767 116.259 107.615 120.32C108.229 122.384 108.714 124.524 109.211 126.604C109.76 128.68 110.203 130.899 111.233 132.713C111.083 132.607 110.95 132.5 110.566 132.425C110.166 132.345 109.643 132.479 109.456 132.665C109.947 132.239 110.31 131.63 111.073 131.161C111.878 130.585 113.404 130.579 114.21 131.284C115.554 132.377 115.741 134.191 115.997 135.648C116.168 136.816 115.357 137.899 114.188 138.07C113.111 138.225 112.102 137.547 111.82 136.523C111.665 135.957 111.499 135.381 111.329 134.944C111.227 134.65 111.062 134.485 111.222 134.714C111.59 135.184 112.316 135.413 112.919 135.296C113.223 135.248 113.431 135.13 113.516 135.082C113.703 134.965 113.671 134.97 113.639 135.018C112.374 136.838 110.384 138.006 108.256 136.501C106.698 135.269 106.089 133.343 105.444 131.614C104.409 128.499 103.635 125.393 103.187 122.171C102.952 119.754 102.846 118.313 100.189 117.561C99.8152 117.455 99.4684 117.385 99.1376 117.284C98.1026 117.017 98.0919 115.48 99.1003 115.182H99.0949Z" fill="black"/>
<path d="M99.2709 94.0594L102.227 99.4266L112.364 104.074L115.293 82.7006L99.2709 90.6661V94.0594Z" fill="black"/>
<path d="M235.688 82.7006C235.688 82.7006 246.967 155.25 218.642 160.916C218.642 160.916 202.882 145.646 187.858 147.449" stroke="black" stroke-width="6.40232" stroke-linecap="round" stroke-linejoin="round"/>
<path d="M187.724 146.366C197.669 143.704 208.014 148.629 215.921 154.321C219.741 157.016 222.83 160.558 226.576 163.386C230.14 166.107 233.72 168.556 238.175 169.692C238.82 169.836 238.868 170.807 238.228 170.999C230.284 173.368 221.411 168.14 215.783 162.836C211.189 158.776 206.094 155.084 200.668 152.31C196.698 150.304 192.51 148.837 187.964 148.538C186.759 148.468 186.551 146.702 187.724 146.372V146.366Z" fill="black"/>
<path d="M185.99 125.324C188.973 129.827 196.56 134.026 205.635 134.41C234.029 135.616 228.182 102.089 228.182 102.089C228.182 102.089 206.846 96.0494 185.996 102.089C185.996 102.089 185.393 105.898 185.985 125.324" stroke="black" stroke-width="6.40232" stroke-linecap="round" stroke-linejoin="round"/>
<path d="M212.432 114.44C212.432 114.44 204.749 118.58 194.874 114.44" stroke="black" stroke-width="5.33527" stroke-linecap="round" stroke-linejoin="round"/>
<path d="M214.998 185.287C239.434 185.287 252.959 172.456 252.959 172.456C249.069 168.94 242.944 163.562 241.226 153.307C248.258 150.64 252.02 147.364 254.725 137.12C257.856 129.384 260.161 124.001 260.743 116.734C261.613 105.962 256.112 100.323 249.443 99.768C248.845 99.72 248.995 99.0958 248.995 97.2765C248.995 95.6012 251.593 95.041 253.535 90.6714" stroke="black" stroke-width="6.40232"/>
<path d="M220.328 172.797C206.745 171.73 192.302 165.253 185.404 153.003C185.115 152.491 185.302 151.84 185.814 151.552C186.311 151.275 186.929 151.435 187.234 151.904C192.729 160.27 201.521 165.749 210.773 169.196C213.91 170.364 217.143 171.378 220.408 172.12C220.814 172.189 220.771 172.829 220.328 172.803V172.797Z" fill="black"/>
<path d="M97.0089 172.456C97.0089 172.456 110.534 185.287 134.969 185.287C153.296 185.287 166.992 177.871 174.888 166.229L174.989 166.08C182.869 177.802 196.602 185.287 215.004 185.287C239.439 185.287 252.964 172.456 252.964 172.456" stroke="black" stroke-width="6.40232"/>
<path d="M252.959 172.456C248.509 168.726 241.349 161.001 239.631 150.747C239.631 150.747 237.908 138.876 237.785 119.738C237.785 119.738 237.348 98.3115 249.448 99.7681" stroke="black" stroke-width="6.40232"/>
<path d="M250.521 117.374C247.378 118.089 247.042 119.188 246.786 122.171C246.535 124.081 246.13 125.948 245.649 127.826C245.143 129.752 244.593 131.694 243.771 133.572C243.297 134.618 242.726 135.744 241.717 136.501C239.861 137.899 237.7 136.966 236.553 135.29L236.334 135.013C236.302 134.965 236.27 134.954 236.457 135.077C236.643 135.205 237.268 135.386 237.609 135.306C238.063 135.248 238.479 135.04 238.746 134.709C238.911 134.474 238.746 134.65 238.639 134.938C238.468 135.376 238.303 135.952 238.148 136.517C237.833 137.654 236.659 138.326 235.523 138.011C233.4 137.339 233.933 135.248 234.403 133.54C234.52 133.129 234.755 132.436 235.16 131.892C235.971 130.686 237.732 130.371 238.895 131.15C239.557 131.588 239.733 131.844 240.127 132.265C240.33 132.5 240.501 132.66 240.512 132.655C240.325 132.463 239.802 132.335 239.402 132.415C239.012 132.489 238.884 132.596 238.735 132.703C238.884 132.479 239.13 131.982 239.263 131.636C240.693 127.858 241.28 123.713 242.486 119.834C243.366 116.062 247.186 113.858 250.867 115.166C251.886 115.475 251.854 116.996 250.841 117.268L250.515 117.358L250.521 117.374Z" fill="black"/>
<path d="M250.697 94.0594L247.741 99.4266L237.604 104.074L234.669 82.7006L250.697 90.6661V94.0594Z" fill="black"/>
<path d="M165.455 138.812C165.674 141.794 165.129 144.424 166.453 146.927C169.504 152.384 179.924 152.987 183.611 147.839C184.24 146.916 184.55 145.822 184.614 144.579L184.657 145.294C184.166 142.322 183.75 139.345 183.435 136.373C182.496 127.453 182.032 118.586 181.978 109.606L182.016 110.108C181.989 110.124 182.053 110.145 182.01 110.108C181.631 109.606 181.034 109.372 180.17 109.051C177.294 108.128 173.335 108.15 170.411 108.987C169.547 109.227 168.827 109.558 168.368 109.926C168.389 109.9 168.485 109.702 168.448 109.526C168.448 111.292 167.013 112.727 165.247 112.727C163.481 112.727 162.046 111.292 162.046 109.526C162.344 100.408 180.564 99.9921 185.948 104.463C187.538 105.669 188.749 107.568 188.845 109.606C188.871 112.45 188.946 115.384 189.064 118.276C189.304 124.065 189.704 129.859 190.333 135.61C190.653 138.497 191.043 141.362 191.48 144.206C191.614 146.761 190.797 149.434 189.309 151.654C185.323 157.384 177.79 159.022 171.345 157.602C165.871 156.482 160.669 152.395 159.495 146.654C158.77 143.496 159.383 139.873 161.256 137.339C162.617 135.461 165.53 136.533 165.455 138.796V138.812Z" fill="black"/>
<path d="M228.182 102.084C231.479 102.969 234.68 103.871 237.721 104.949" stroke="black" stroke-width="6.40232"/>
<path d="M112.39 105.098C115.383 104.026 118.542 102.969 121.786 102.084" stroke="black" stroke-width="6.40232"/>
<path d="M132.478 219.267C131.058 221.316 130.514 224.955 130.066 227.761C129.741 230.21 129.554 232.718 129.453 235.199L129.378 237.706L128.935 235.231C128.177 230.365 126.79 221.081 129.212 216.723L132.478 219.267Z" fill="black"/>
<path d="M152.17 236.586C149.481 241.163 148.35 246.6 148.318 251.898C148.281 255.232 148.809 258.562 149.609 261.795C146.883 255.473 145.698 248.467 146.696 241.606C147.043 239.216 147.582 236.826 148.547 234.585L152.17 236.586Z" fill="black"/>
<path d="M201.537 235.124C205.678 242.652 204.936 252.303 202.556 260.269C203.042 256.241 203.122 252.117 202.434 248.11C201.954 245.41 201.196 242.844 200.006 240.422C199.494 239.451 198.934 238.416 198.224 237.599L201.537 235.124Z" fill="black"/>
<path d="M159.949 203.363C158.279 207.519 157.826 212.086 157.473 216.557C157.228 219.924 157.233 223.701 157.324 227.105L157.484 230.637C156.572 226.102 155.75 221.177 155.403 216.568C155.073 211.675 154.854 206.623 156.113 201.81L159.949 203.363Z" fill="black"/>
<path d="M192.382 202.168C194.932 205.166 195.599 209.146 195.978 212.913C196.437 218.633 195.573 224.517 194.367 230.103C194.676 225.088 194.666 219.87 193.775 214.925C193.262 212.332 192.499 209.621 191.208 207.327C190.739 206.559 190.285 205.812 189.613 205.23C189.608 205.337 192.371 202.152 192.382 202.168Z" fill="black"/>
<path d="M219.389 216.226C222.91 220.415 223.167 231.41 223.257 236.852C222.553 233.646 221.721 230.317 220.675 227.222C219.869 224.944 219.005 222.687 217.741 220.676C217.415 220.18 217.068 219.641 216.626 219.283C216.626 219.283 216.578 219.257 216.674 219.347L219.389 216.226Z" fill="black"/>
<path d="M155.558 180.923C161.235 184.337 167.877 186.306 174.984 186.306C182.09 186.306 188.733 184.337 194.404 180.923" stroke="black" stroke-width="6.40232" stroke-linejoin="round"/>
<path d="M102.525 52.2308C102.525 52.2308 163.646 52.2308 247.437 52.2308Z" fill="#C65F28"/>
<path d="M102.525 52.2308C102.525 52.2308 163.646 52.2308 247.437 52.2308" stroke="black" stroke-width="6.40232"/>
<path d="M174.498 74.0947C205.795 74.0947 234.68 79.5154 253.535 90.6714C254.906 88.4199 255.338 86.4352 255.584 79.9795C255.957 69.8585 255.909 66.2946 254.762 61.8396C253.279 56.0989 249.187 54.0608 247.437 52.2308C228.811 42.75 203.015 36.8812 174.498 36.8812H175.464C146.947 36.8812 121.151 42.75 102.525 52.2308C100.775 54.0608 96.6833 56.0989 95.2001 61.8396C94.0531 66.2946 94.005 69.8585 94.3785 79.9795C94.6239 86.4405 95.0561 88.4199 96.4272 90.6714C115.282 79.5207 144.167 74.0947 175.464 74.0947H174.498Z" fill="#C65F28" stroke="black" stroke-width="6.40232"/>
<path d="M242 58.5372C242.587 58.8413 242.678 59.3962 242.683 59.7003C242.534 64.4487 242.027 69.197 241.168 73.8867C240.992 74.655 240.319 74.7084 239.957 74.1802C239.797 73.9454 239.733 73.6627 239.775 73.3372C240.613 68.6368 241.109 63.8884 241.258 59.1347C241.306 58.4998 241.739 58.4251 242 58.5318" fill="black"/>
<path d="M228.571 53.9167C229.105 54.0714 229.441 54.4929 229.457 55.0158C229.334 59.7748 228.929 64.5499 228.24 69.2983C228.07 70.1573 227.088 70.2 226.64 69.5597C226.432 69.2663 226.458 68.9942 226.469 68.8768C227.131 64.1231 227.525 59.348 227.643 54.5836C227.691 53.9434 228.224 53.8314 228.571 53.9114" fill="black"/>
<path d="M212.315 50.3795C212.923 50.4916 213.328 50.8971 213.35 51.4146C213.264 56.179 212.976 60.9807 212.496 65.7665C212.352 66.6681 211.125 66.7428 210.618 66.0759C210.426 65.8198 210.431 65.5904 210.437 65.4784C210.89 60.6873 211.162 55.8855 211.242 51.1211C211.29 50.4756 211.909 50.3262 212.315 50.3849" fill="black"/>
<path d="M194.089 48.0107C194.751 48.0801 195.199 48.4589 195.226 48.9711C195.178 53.7408 195.028 58.5532 194.778 63.3656C194.666 64.3367 193.252 64.4487 192.702 63.7338C192.537 63.5204 192.537 63.339 192.531 63.2216C192.75 58.4092 192.884 53.5968 192.926 48.827C192.974 48.1815 193.647 47.9841 194.084 48.0161" fill="black"/>
<path d="M174.749 47.4291C175.432 47.4504 175.896 47.7972 175.933 48.3094C175.928 53.0791 175.923 57.8969 175.917 62.7146C175.853 63.6696 174.376 63.8777 173.799 63.2215C173.618 63.0187 173.607 62.8427 173.597 62.7253C173.57 57.9075 173.554 53.0898 173.559 48.3201C173.602 47.6692 174.296 47.4291 174.749 47.4291Z" fill="black"/>
<path d="M155.137 48.1868C155.82 48.1601 156.284 48.4749 156.321 48.987C156.353 53.7568 156.497 58.5692 156.743 63.3816C156.732 64.358 155.297 64.6727 154.662 64.0378C154.47 63.8458 154.448 63.6697 154.438 63.5577C154.16 58.7506 154 53.9382 153.963 49.1684C154 48.5122 154.683 48.2294 155.137 48.1921" fill="black"/>
<path d="M136.196 50.881C136.826 50.8063 137.253 51.0891 137.295 51.5959C137.37 56.3603 137.653 61.1567 138.144 65.9425C138.181 66.9028 136.858 67.3136 136.26 66.7428C136.079 66.5667 136.047 66.3906 136.026 66.2786C135.508 61.4982 135.204 56.7071 135.129 51.9427C135.156 51.2865 135.78 50.9504 136.196 50.8863" fill="black"/>
<path d="M120.127 54.7543C120.617 54.6476 120.975 54.9091 121.012 55.4052C121.119 60.1643 121.53 64.934 122.229 69.6771C122.319 70.5894 121.37 71.0963 120.82 70.6374C120.612 70.4614 120.564 70.2373 120.543 70.1306C119.822 65.3929 119.401 60.6231 119.289 55.8694C119.305 55.2132 119.801 54.8397 120.127 54.7543Z" fill="black"/>
<path d="M107.871 59.5081C108.394 59.3481 108.501 59.8176 108.522 60.111C108.656 64.8594 109.163 69.6025 110.016 74.2922C110.139 75.1458 109.536 75.7113 109.093 75.3699C108.885 75.2098 108.826 74.9484 108.805 74.8364C107.93 70.1573 107.418 65.4196 107.279 60.6712C107.279 60.0096 107.637 59.6148 107.871 59.5135" fill="black"/>
<path d="M97.8145 447.766C97.8145 448.684 97.0142 449.255 95.755 449.255C94.2665 449.255 93.0661 449.084 90.0837 449.084C87.1012 449.084 85.8475 449.255 84.3002 449.255C82.753 449.255 82.1821 448.566 82.1821 447.649C82.1821 445.531 85.5007 446.331 85.5007 443.583C85.5007 442.724 85.3886 442.207 85.3299 441.695L84.1295 433.222C83.612 429.327 82.2408 426.409 79.0343 426.409C76.5161 426.409 73.651 428.356 73.651 434.081V442.442C73.651 446.678 77.0869 445.419 77.0869 447.707C77.0869 448.454 76.5161 449.313 75.1396 449.313C73.7631 449.313 72.2745 449.143 69.3561 449.143C66.4377 449.143 65.0612 449.313 63.6901 449.313C62.3189 449.313 61.7427 448.513 61.7427 447.707C61.7427 445.419 65.0612 446.678 65.0612 442.442V415.701C65.0612 412.095 61.2839 413.695 61.2839 411.118C61.2839 409.859 62.7724 409.112 66.7792 407.282C70.5566 405.623 71.3035 405.452 71.9918 405.452C73.3096 405.452 73.651 406.541 73.651 407.97V425.55C75.4277 422.514 78.6875 419.884 83.2118 419.884C89.1073 419.884 91.8016 424.921 92.6019 431.109L93.9784 441.759C94.6667 446.854 97.8145 445.307 97.8145 447.772V447.766Z" fill="black"/>
<path d="M99.1323 435.223C99.1323 426.121 106.404 419.361 116.595 419.361C126.785 419.361 132.969 425.886 132.969 434.476C132.969 443.754 125.467 450.279 115.506 450.279C105.545 450.279 99.1323 443.754 99.1323 435.218V435.223ZM123.696 436.829C123.696 431.046 120.377 423.715 114.994 423.715C110.816 423.715 108.41 427.092 108.41 432.876C108.41 438.659 111.675 445.931 117.112 445.931C121.348 445.931 123.696 442.554 123.696 436.829Z" fill="black"/>
<path d="M171.511 434.652C171.511 443.872 165.156 450.055 156.849 450.055C152.213 450.055 149.748 448.679 147.971 447.19V452.685C147.971 456.863 151.978 455.492 151.978 458.01C151.978 458.757 151.349 459.557 150.031 459.557C148.601 459.557 146.766 459.387 143.676 459.387C140.811 459.387 139.382 459.557 138.005 459.557C136.629 459.557 136.058 458.757 136.058 458.01C136.058 455.663 139.376 456.922 139.376 452.685V430.352C139.376 426.687 135.652 428.293 135.652 425.769C135.652 424.451 137.082 423.71 141.147 421.933C144.872 420.215 145.442 420.044 146.184 420.044C147.843 420.044 147.961 421.933 147.961 422.792V425.251C150.137 422.104 153.632 419.58 158.61 419.58C165.94 419.58 171.494 425.422 171.494 434.642L171.511 434.652ZM162.403 436.829C162.403 430.245 159.026 425.604 154.731 425.604C151.007 425.604 147.977 428.869 147.977 433.847V436.082C147.977 441.577 151.071 445.76 155.649 445.76C159.426 445.76 162.403 442.783 162.403 436.829Z" fill="black"/>
<path d="M177.982 447.708L176.094 443.642C175.235 441.812 174.605 440.777 174.605 439.747C174.605 438.659 175.352 438.088 176.094 438.088C176.835 438.088 177.47 438.606 178.27 439.406C181.706 442.73 186.001 445.76 190.755 445.76C193.791 445.76 195.567 444.213 195.567 442.383C195.567 439.865 192.19 439.347 187.666 438.318C181.482 436.941 175.24 434.594 175.24 428.639C175.24 423.486 179.935 419.879 186.177 419.879C189.442 419.879 192.019 420.797 193.049 420.797C194.196 420.797 194.196 419.65 195.509 419.65C196.821 419.65 197.397 420.738 198.144 421.885L200.262 425.209C201.063 426.409 201.751 427.668 201.751 428.527C201.751 429.386 201.121 429.957 200.433 429.957C199.574 429.957 198.944 429.328 198.198 428.698C194.991 426.009 190.926 423.832 187.378 423.832C185.089 423.832 183.542 424.921 183.542 426.468C183.542 428.816 186.519 429.333 191.214 430.475C197.627 431.963 203.869 433.911 203.869 440.324C203.869 446.395 198.085 449.772 190.814 449.772C186.807 449.772 184.401 448.743 183.312 448.743C181.882 448.743 181.765 450.231 180.335 450.231C179.135 450.231 178.505 448.855 177.988 447.713L177.982 447.708Z" fill="black"/>
<path d="M229.174 443.642C229.174 444.56 228.545 445.59 227.744 446.39C225.738 448.449 222.879 449.884 218.866 449.884C214.001 449.884 210.277 447.078 210.277 443.642C210.277 442.442 210.506 438.029 210.506 434.081V424.803H207.47C206.211 424.803 205.352 424.115 205.352 423.027C205.352 421.88 206.099 421.309 207.3 420.62C210.965 418.732 212.795 416.896 214.689 412.948C216.007 410.83 216.519 409.913 217.666 409.913C218.525 409.913 219.096 410.483 219.096 411.972V420.503H227.168C228.086 420.503 228.598 420.962 228.598 421.88C228.598 422.338 228.486 423.027 228.427 423.368C228.256 424.339 227.798 424.798 226.88 424.798H219.09V439.054C219.09 443.461 220.52 444.608 222.526 444.608C223.903 444.608 224.874 443.92 226.074 442.89C226.474 442.548 226.992 442.09 227.675 442.09C228.646 442.09 229.163 442.831 229.163 443.637L229.174 443.642Z" fill="black"/>
<path d="M260.892 442.266C260.892 442.725 260.722 443.183 260.375 443.754C258.486 446.731 253.215 450.279 246.231 450.279C237.412 450.279 230.828 444.325 230.828 435.047C230.828 425.769 238.217 419.356 246.631 419.356C255.045 419.356 259.745 425.198 259.745 430.806C259.745 432.465 259.228 432.753 258.198 433.095L241.018 438.36C242.795 441.967 246.055 444.603 250.238 444.603C253.103 444.603 255.45 443.514 257.568 441.738C258.486 441.049 258.945 440.767 259.516 440.767C260.375 440.767 260.892 441.626 260.892 442.255V442.266ZM239.535 431.846C239.535 432.764 239.594 433.676 239.765 434.535L249.614 431.329C250.531 431.04 250.99 430.582 250.99 429.552C250.99 426.916 248.701 423.71 245.436 423.71C242 423.71 239.541 426.804 239.541 431.841L239.535 431.846Z" fill="black"/>
<path d="M291.186 423.715C291.186 425.321 290.439 427.439 289.239 430.299C288.78 431.446 288.15 432.129 287.179 432.129C286.261 432.129 285.691 431.382 285.232 430.469C284.202 428.41 283.226 427.204 281.684 427.204C279.448 427.204 275.959 430.24 275.959 437.165V442.431C275.959 446.667 280.083 445.179 280.083 447.697C280.083 448.444 279.512 449.303 278.136 449.303C276.647 449.303 274.871 449.132 271.664 449.132C268.799 449.132 267.311 449.303 265.939 449.303C264.568 449.303 263.992 448.503 263.992 447.697C263.992 445.408 267.369 446.667 267.369 442.431V430.347C267.369 426.681 263.592 428.287 263.592 425.764C263.592 424.505 265.022 423.704 269.087 421.928C272.865 420.21 273.553 420.039 274.182 420.039C275.559 420.039 275.959 421.186 275.959 422.787V427.482C277.677 423.128 281.742 419.81 285.867 419.81C289.073 419.81 291.191 421.64 291.191 423.704L291.186 423.715Z" fill="black"/>
<path d="M138.074 341.072C138.074 339.135 141.292 340.165 141.292 337.278V317.858C141.292 316.54 140.795 315.964 139.52 315.964H138.656C136.18 315.964 134.366 317.735 131.645 320.83C131.026 321.528 130.616 321.945 129.954 321.945C129.335 321.945 128.759 321.448 128.759 320.541C128.759 319.757 129.09 319.058 129.709 317.575L131.192 313.904C131.811 312.378 132.344 311.802 133.251 311.802C134.366 311.802 134.569 312.789 136.218 312.789H153.162C154.811 312.789 155.019 311.802 156.129 311.802C157.036 311.802 157.569 312.378 158.188 313.904L159.672 317.575C160.29 319.058 160.621 319.762 160.621 320.541C160.621 321.448 160.045 321.945 159.426 321.945C158.765 321.945 158.354 321.534 157.735 320.83C155.014 317.735 153.2 315.964 150.724 315.964H149.86C148.579 315.964 148.089 316.54 148.089 317.858V337.278C148.089 340.165 151.306 339.135 151.306 341.072C151.306 341.69 150.852 342.267 149.823 342.267C148.585 342.267 147.224 342.144 144.711 342.144C142.199 342.144 140.753 342.267 139.558 342.267C138.528 342.267 138.074 341.69 138.074 341.072Z" fill="black"/>
<path d="M193.321 341.072C193.321 341.69 192.868 342.267 191.838 342.267C190.808 342.267 189.65 342.144 187.346 342.144C185.041 342.144 183.926 342.267 182.891 342.267C181.856 342.267 181.407 341.69 181.407 341.072C181.407 339.338 183.92 340.207 183.92 337.321V329.857C183.92 329.115 183.675 328.827 182.683 328.827H172.706C171.719 328.827 171.468 329.115 171.468 329.857V337.321C171.468 340.207 174.023 339.343 174.023 341.072C174.023 341.69 173.57 342.267 172.54 342.267C171.51 342.267 170.353 342.144 168.048 342.144C165.743 342.144 164.628 342.267 163.593 342.267C162.558 342.267 162.11 341.69 162.11 341.072C162.11 339.338 164.623 340.207 164.623 337.321V317.612C164.623 314.726 162.11 315.59 162.11 313.819C162.11 313.2 162.643 312.667 163.716 312.667C164.788 312.667 165.738 312.789 168.043 312.789C170.347 312.789 171.462 312.667 172.535 312.667C173.607 312.667 174.018 313.2 174.018 313.819C174.018 315.59 171.462 314.726 171.462 317.612V324.58C171.462 325.364 171.708 325.653 172.7 325.653H182.677C183.664 325.653 183.915 325.364 183.915 324.58V317.612C183.915 314.726 181.402 315.59 181.402 313.819C181.402 313.2 181.813 312.667 182.885 312.667C183.958 312.667 185.03 312.789 187.34 312.789C189.65 312.789 190.803 312.667 191.833 312.667C192.862 312.667 193.316 313.2 193.316 313.819C193.316 315.59 190.76 314.726 190.76 317.612V337.321C190.76 340.207 193.316 339.343 193.316 341.072H193.321Z" fill="black"/>
<path d="M223.711 333.938C223.711 334.765 223.38 335.464 222.596 337.155L220.702 341.194C220.083 342.512 219.507 343.131 218.642 343.131C217.49 343.131 217.282 342.144 215.548 342.144H202.354C200.086 342.144 198.848 342.267 197.941 342.267C196.826 342.267 196.416 341.733 196.416 341.072C196.416 339.338 198.928 340.207 198.928 337.321V317.612C198.928 314.726 196.416 315.59 196.416 313.862C196.416 313.2 196.826 312.667 197.941 312.667C198.806 312.667 200.044 312.789 202.354 312.789H213.942C215.59 312.789 215.799 311.802 216.871 311.802C217.778 311.802 218.354 312.378 219.058 313.904L220.75 317.575C221.491 319.144 221.822 319.842 221.822 320.669C221.822 321.534 221.203 321.987 220.627 321.987C219.965 321.987 219.555 321.576 218.936 320.915C216.049 317.863 214.358 315.969 210.938 315.969H208.34C206.195 315.969 205.784 316.545 205.784 317.906V324.586C205.784 325.37 206.03 325.658 207.022 325.658H209.412C211.888 325.658 211.845 322.649 213.494 322.649C214.235 322.649 214.732 323.102 214.732 324.255C214.732 325.204 214.609 326.234 214.609 327.221C214.609 328.208 214.732 329.281 214.732 330.23C214.732 331.383 214.235 331.836 213.494 331.836C211.845 331.836 211.888 328.827 209.412 328.827H207.022C206.035 328.827 205.784 329.115 205.784 329.857V336.99C205.784 338.393 206.238 338.969 208.34 338.969H212.379C215.927 338.969 217.906 336.99 220.83 333.736C221.449 332.994 221.859 332.62 222.521 332.62C223.097 332.62 223.716 333.117 223.716 333.938H223.711Z" fill="black"/>
<path d="M28.9575 375.671C34.8103 376.002 40.1295 379.411 40.359 385.722C40.7218 395.641 32.2867 398.484 23.9583 398.831C16.7024 399.13 9.3237 398.719 2.07841 398.666C1.47552 398.474 0.72325 398.5 0.600539 397.743C0.32844 396.078 2.53724 395.865 2.78266 394.248C3.27884 383.396 2.85202 372.448 3.00141 361.559C2.92672 360.743 2.80934 359.873 2.33984 359.185C1.66759 358.192 0.387128 358.123 0.600539 356.64C0.701909 355.936 1.49686 355.893 2.07841 355.717C9.73452 355.733 17.5667 355.157 25.2228 355.551C31.1663 355.856 36.7416 358.155 37.1898 364.851C37.5313 369.941 35.3011 373.211 30.6328 375.009C30.0832 375.223 29.331 375.26 28.9575 375.671ZM15.0324 373.019H21.0453C21.5521 373.019 23.0727 372.507 23.5529 372.235C25.7777 370.981 26.1298 367.817 25.7617 365.523C24.9667 360.572 18.6764 361.628 15.0324 361.506V373.019ZM15.0324 378.963V390.284C15.0324 390.578 15.55 391.57 15.79 391.805C17.3106 393.336 22.5178 393.058 24.4385 392.338C27.7944 391.079 28.4933 387.2 27.8958 384.01C26.7434 377.906 19.7008 379.069 15.0378 378.957L15.0324 378.963Z" fill="black"/>
<path d="M188.936 356.224C189.33 355.749 191.342 355.583 191.998 355.551C197.685 355.247 204.909 355.311 210.623 355.551C222.873 356.069 231.628 361.367 232.343 374.465C233.106 388.523 226.512 398.143 211.893 398.831C204.728 399.167 197.424 398.692 190.264 398.666C189.661 398.474 188.909 398.5 188.786 397.743C188.514 396.078 190.723 395.865 190.968 394.248C191.464 383.396 191.038 372.448 191.187 361.559C191.112 360.743 190.995 359.873 190.525 359.185C190.173 358.667 188.925 357.915 188.802 357.494C188.711 357.195 188.738 356.469 188.941 356.224H188.936ZM203.213 361.506V389.148C203.213 389.74 203.853 391.17 204.29 391.613C205.704 393.048 210.33 392.925 212.208 392.568C220.008 391.095 220.392 380.489 220.061 374.209C219.587 365.336 215.665 361.836 206.953 361.495C205.71 361.447 204.456 361.543 203.213 361.495V361.506Z" fill="black"/>
<path d="M59.8593 393.576C60.0514 395.203 60.825 395.385 61.764 396.356C62.479 397.092 62.575 398.084 61.4866 398.49C60.9477 398.687 59.6566 398.799 59.0431 398.831C56.5515 398.97 48.3405 399.162 46.3131 398.511C45.9663 398.399 45.6088 398.34 45.4808 397.951C44.9046 396.19 47.3908 395.886 47.6202 394.254C48.1164 383.402 47.6896 372.454 47.839 361.564C47.7643 360.748 47.6469 359.878 47.1774 359.19C46.4892 358.171 45.0326 358.032 45.4808 356.437C45.5128 356.314 45.5555 356.272 45.6462 356.192C46.1477 355.733 47.9404 355.6 48.6499 355.562C53.7345 355.29 60.1421 355.354 65.248 355.562C72.0878 355.84 79.5198 357.536 81.4512 365.054C83.1211 371.563 80.4055 378.296 74.1685 381.059L81.9687 392.114C82.7957 393.074 83.7187 394.147 84.679 394.974C85.2286 395.449 86.6904 396.281 87.0159 396.686C87.5334 397.327 87.2186 398.031 86.5197 398.324C84.5937 399.13 77.7218 398.965 75.5824 398.495C73.2829 397.988 72.4666 396.847 71.1541 395.075C68.3104 391.234 65.8775 387.067 62.9645 383.268H59.8593V393.581V393.576ZM59.8593 377.57C63.9355 377.325 68.161 376.685 69.2708 372.107C70.3805 367.529 69.5322 361.378 63.594 361.378H59.8593V377.57Z" fill="black"/>
<path d="M270.96 394.968C271.109 396.03 271.755 396.238 272.411 396.804C273.067 397.369 273.115 398.34 272.203 398.612C270.805 399.034 265.705 398.938 264.056 398.82C263.256 398.767 261.997 398.751 261.895 397.817C261.794 396.884 263.09 396.521 263.512 395.753C263.752 395.315 263.805 394.824 263.869 394.339V361.559C263.795 360.743 263.677 359.873 263.208 359.185C262.535 358.192 261.255 358.123 261.468 356.64C261.532 356.202 261.757 356.09 262.151 355.936C263.821 355.285 271.648 355.434 273.809 355.551C275.367 355.637 277.053 355.802 278.045 357.141L296.094 386.683L296.793 386.736V360.551C296.638 359.564 296.745 358.833 295.972 358.086C295.513 357.643 294.787 357.536 294.755 356.763C294.728 356.17 295.011 355.92 295.545 355.776C296.959 355.391 303.34 355.386 304.801 355.717C305.404 355.856 305.82 356.064 305.788 356.757C305.751 357.664 304.247 357.835 303.91 359.318C303.553 371.893 303.852 384.522 303.756 397.119C303.66 397.924 303.18 398.26 302.459 398.484C300.661 399.045 293.208 399.029 291.437 398.41C290.994 398.255 290.61 397.988 290.258 397.689L271.563 367.086L270.949 367.065V394.963L270.96 394.968Z" fill="black"/>
<path d="M110.107 355.215C123.392 354.495 132.456 360.716 133.683 374.348C134.911 387.942 128.887 397.786 114.754 399.077C100.119 400.416 90.2383 393.512 89.6141 378.397C89.0379 364.461 96.0431 355.978 110.107 355.215ZM110.107 362.05C103.689 362.706 102.125 369.775 101.896 375.1C101.554 382.905 102.739 393.443 113.105 392.376C121.13 391.549 121.823 381.502 121.535 375.228C121.194 367.887 118.809 361.164 110.107 362.05Z" fill="black"/>
<path d="M159.367 355.215C172.652 354.495 181.717 360.716 182.944 374.348C184.171 387.942 178.148 397.786 164.015 399.077C149.881 400.368 139.499 393.512 138.875 378.397C138.299 364.461 145.304 355.978 159.367 355.215ZM159.367 362.05C152.949 362.706 151.386 369.775 151.157 375.1C150.815 382.905 151.999 393.443 162.366 392.376C170.39 391.549 171.084 381.502 170.796 375.228C170.454 367.887 168.069 361.164 159.367 362.05Z" fill="black"/>
<path d="M332.609 355.216C337.4 354.943 347.596 356.32 349.837 361.335C351.437 364.915 348.759 371.141 344.352 367.449C341.3 364.894 339.982 362.162 335.362 361.879C323.464 361.154 322.28 376.706 324.718 385.04C326.884 392.44 333.137 393.88 340.046 392.13L340.11 391.815C339.865 388.572 340.42 384.896 340.089 381.705C340.036 381.204 339.849 380.494 339.577 380.067C339.187 379.454 337.987 378.776 337.795 378.307C337.48 377.533 337.726 376.957 338.483 376.658C339.918 376.087 346.924 376.194 348.786 376.311C350.061 376.391 351.773 376.509 351.763 378.147C351.442 382.975 352.173 388.321 351.763 393.085C351.501 396.121 347.046 397.204 344.539 397.887C330.512 401.718 314.037 398.164 311.759 381.673C309.737 367.054 317.617 356.074 332.609 355.221V355.216Z" fill="black"/>
<path d="M238.324 398.159C238.079 397.86 238.116 397.183 238.255 396.836C238.447 396.366 239.316 395.881 239.679 395.481C240.314 394.787 240.421 394.104 240.56 393.197V361.436C240.533 360.913 240.41 360.119 240.207 359.649C239.791 358.689 236.889 357.184 238.601 356.069C239.114 355.733 240.72 355.594 241.381 355.557C244.476 355.386 248.68 355.386 251.774 355.557C252.399 355.589 253.775 355.712 254.314 355.93C254.527 356.016 254.911 356.32 254.975 356.533C255.45 358.128 252.985 358.63 252.783 360.108C252.35 371.061 252.724 382.095 252.591 393.074C252.681 393.64 252.713 394.206 252.953 394.734C253.402 395.721 256.245 397.209 254.559 398.319C254.01 398.682 252.484 398.794 251.78 398.831C249.453 398.954 240.597 399.13 238.852 398.447C238.724 398.399 238.393 398.244 238.324 398.154V398.159Z" fill="black"/>
</svg>
