<svg width="350" height="456" viewBox="0 0 350 456" fill="none" xmlns="http://www.w3.org/2000/svg">
<g clip-path="url(#clip0_32_809)">
<path d="M97.286 444.28C97.286 445.192 96.4906 445.76 95.239 445.76C93.7594 445.76 92.5662 445.59 89.6017 445.59C86.6372 445.59 85.391 445.76 83.8531 445.76C82.3151 445.76 81.7477 445.075 81.7477 444.163C81.7477 442.058 85.0463 442.853 85.0463 440.122C85.0463 439.268 84.9349 438.754 84.8766 438.245L83.6834 429.823C83.1689 425.952 81.806 423.051 78.6188 423.051C76.1157 423.051 73.2679 424.987 73.2679 430.677V438.987C73.2679 443.198 76.6831 441.947 76.6831 444.222C76.6831 444.964 76.1157 445.818 74.7475 445.818C73.3793 445.818 71.8997 445.648 68.9988 445.648C66.098 445.648 64.7298 445.818 63.3668 445.818C62.0039 445.818 61.4312 445.022 61.4312 444.222C61.4312 441.947 64.7298 443.198 64.7298 438.987V412.408C64.7298 408.823 60.9751 410.414 60.9751 407.852C60.9751 406.601 62.4547 405.858 66.4374 404.039C70.192 402.39 70.9345 402.22 71.6186 402.22C72.9285 402.22 73.2679 403.302 73.2679 404.723V422.197C75.0339 419.18 78.2741 416.565 82.7712 416.565C88.6312 416.565 91.3093 421.572 92.1048 427.723L93.473 438.309C94.1572 443.373 97.286 441.835 97.286 444.285V444.28Z" fill="black"/>
<path d="M98.5959 431.812C98.5959 422.765 105.824 416.046 115.953 416.046C126.082 416.046 132.229 422.532 132.229 431.07C132.229 440.292 124.772 446.778 114.871 446.778C104.97 446.778 98.5959 440.292 98.5959 431.807V431.812ZM123.012 433.408C123.012 427.66 119.713 420.373 114.362 420.373C110.21 420.373 107.818 423.73 107.818 429.479C107.818 435.227 111.064 442.456 116.468 442.456C120.678 442.456 123.012 439.099 123.012 433.408Z" fill="black"/>
<path d="M170.539 431.245C170.539 440.409 164.223 446.555 155.966 446.555C151.357 446.555 148.907 445.187 147.141 443.707V449.169C147.141 453.322 151.124 451.959 151.124 454.462C151.124 455.205 150.498 456 149.188 456C147.767 456 145.943 455.83 142.872 455.83C140.025 455.83 138.603 456 137.235 456C135.867 456 135.299 455.205 135.299 454.462C135.299 452.129 138.598 453.38 138.598 449.169V426.97C138.598 423.327 134.896 424.923 134.896 422.415C134.896 421.105 136.318 420.368 140.359 418.602C144.06 416.894 144.628 416.725 145.365 416.725C147.014 416.725 147.131 418.602 147.131 419.456V421.9C149.295 418.772 152.768 416.263 157.716 416.263C165.003 416.263 170.523 422.07 170.523 431.234L170.539 431.245ZM161.487 433.408C161.487 426.864 158.13 422.25 153.861 422.25C150.159 422.25 147.147 425.496 147.147 430.444V432.666C147.147 438.128 150.223 442.286 154.773 442.286C158.527 442.286 161.487 439.327 161.487 433.408Z" fill="black"/>
<path d="M176.972 444.222L175.094 440.181C174.241 438.362 173.615 437.333 173.615 436.309C173.615 435.227 174.357 434.66 175.094 434.66C175.832 434.66 176.463 435.174 177.258 435.97C180.673 439.274 184.942 442.286 189.668 442.286C192.685 442.286 194.451 440.748 194.451 438.929C194.451 436.426 191.094 435.912 186.597 434.888C180.451 433.52 174.246 431.186 174.246 425.268C174.246 420.145 178.913 416.56 185.117 416.56C188.363 416.56 190.924 417.472 191.948 417.472C193.088 417.472 193.088 416.332 194.393 416.332C195.697 416.332 196.27 417.414 197.013 418.554L199.118 421.858C199.913 423.051 200.597 424.303 200.597 425.157C200.597 426.01 199.972 426.578 199.288 426.578C198.434 426.578 197.808 425.952 197.066 425.326C193.878 422.654 189.837 420.49 186.311 420.49C184.036 420.49 182.498 421.572 182.498 423.11C182.498 425.443 185.457 425.957 190.124 427.092C196.498 428.572 202.703 430.508 202.703 436.882C202.703 442.917 196.954 446.274 189.726 446.274C185.743 446.274 183.352 445.25 182.27 445.25C180.848 445.25 180.732 446.73 179.311 446.73C178.117 446.73 177.491 445.362 176.977 444.227L176.972 444.222Z" fill="black"/>
<path d="M227.856 440.181C227.856 441.093 227.23 442.116 226.435 442.912C224.441 444.959 221.598 446.385 217.61 446.385C212.774 446.385 209.072 443.596 209.072 440.181C209.072 438.987 209.3 434.602 209.3 430.677V421.455H206.283C205.031 421.455 204.177 420.771 204.177 419.689C204.177 418.549 204.92 417.981 206.113 417.297C209.756 415.42 211.575 413.596 213.458 409.671C214.768 407.566 215.277 406.654 216.417 406.654C217.271 406.654 217.838 407.221 217.838 408.701V417.181H225.862C226.774 417.181 227.283 417.637 227.283 418.549C227.283 419.005 227.172 419.689 227.114 420.028C226.944 420.994 226.488 421.45 225.576 421.45H217.833V435.62C217.833 440 219.254 441.14 221.248 441.14C222.616 441.14 223.582 440.456 224.775 439.433C225.173 439.093 225.687 438.637 226.366 438.637C227.331 438.637 227.845 439.374 227.845 440.175L227.856 440.181Z" fill="black"/>
<path d="M259.383 438.812C259.383 439.268 259.214 439.725 258.869 440.292C256.992 443.251 251.752 446.778 244.81 446.778C236.044 446.778 229.5 440.859 229.5 431.637C229.5 422.415 236.845 416.041 245.208 416.041C253.571 416.041 258.243 421.847 258.243 427.421C258.243 429.07 257.729 429.357 256.705 429.696L239.629 434.93C241.395 438.515 244.635 441.135 248.793 441.135C251.641 441.135 253.974 440.053 256.079 438.287C256.992 437.603 257.448 437.322 258.015 437.322C258.869 437.322 259.383 438.176 259.383 438.802V438.812ZM238.155 428.455C238.155 429.367 238.213 430.274 238.383 431.128L248.172 427.941C249.085 427.655 249.541 427.198 249.541 426.175C249.541 423.555 247.266 420.368 244.02 420.368C240.605 420.368 238.16 423.444 238.16 428.45L238.155 428.455Z" fill="black"/>
<path d="M289.495 420.373C289.495 421.969 288.752 424.075 287.559 426.917C287.103 428.057 286.477 428.736 285.512 428.736C284.6 428.736 284.033 427.994 283.577 427.087C282.553 425.04 281.583 423.841 280.05 423.841C277.828 423.841 274.36 426.859 274.36 433.743V438.977C274.36 443.187 278.459 441.708 278.459 444.211C278.459 444.953 277.891 445.807 276.523 445.807C275.044 445.807 273.278 445.638 270.091 445.638C267.243 445.638 265.763 445.807 264.4 445.807C263.037 445.807 262.465 445.012 262.465 444.211C262.465 441.936 265.821 443.187 265.821 438.977V426.965C265.821 423.322 262.067 424.918 262.067 422.41C262.067 421.158 263.488 420.363 267.529 418.597C271.284 416.889 271.968 416.719 272.594 416.719C273.962 416.719 274.36 417.859 274.36 419.45V424.117C276.067 419.79 280.108 416.491 284.208 416.491C287.395 416.491 289.5 418.31 289.5 420.363L289.495 420.373Z" fill="black"/>
<path d="M137.304 338.227C137.304 336.302 140.502 337.325 140.502 334.456V315.153C140.502 313.843 140.009 313.27 138.741 313.27H137.882C135.421 313.27 133.618 315.031 130.914 318.106C130.298 318.801 129.89 319.215 129.232 319.215C128.617 319.215 128.045 318.722 128.045 317.82C128.045 317.04 128.373 316.346 128.989 314.871L130.463 311.223C131.078 309.706 131.608 309.133 132.51 309.133C133.618 309.133 133.82 310.115 135.458 310.115H152.301C153.94 310.115 154.147 309.133 155.25 309.133C156.151 309.133 156.682 309.706 157.297 311.223L158.771 314.871C159.386 316.346 159.715 317.046 159.715 317.82C159.715 318.722 159.142 319.215 158.527 319.215C157.87 319.215 157.461 318.806 156.846 318.106C154.142 315.031 152.338 313.27 149.878 313.27H149.019C147.746 313.27 147.258 313.843 147.258 315.153V334.456C147.258 337.325 150.456 336.302 150.456 338.227C150.456 338.842 150.005 339.415 148.982 339.415C147.751 339.415 146.399 339.293 143.901 339.293C141.403 339.293 139.966 339.415 138.778 339.415C137.755 339.415 137.304 338.842 137.304 338.227Z" fill="black"/>
<path d="M192.218 338.227C192.218 338.842 191.768 339.415 190.744 339.415C189.721 339.415 188.57 339.293 186.279 339.293C183.988 339.293 182.88 339.415 181.851 339.415C180.822 339.415 180.376 338.842 180.376 338.227C180.376 336.503 182.874 337.368 182.874 334.499V327.08C182.874 326.342 182.63 326.056 181.644 326.056H171.727C170.746 326.056 170.497 326.342 170.497 327.08V334.499C170.497 337.368 173.037 336.509 173.037 338.227C173.037 338.842 172.586 339.415 171.563 339.415C170.539 339.415 169.388 339.293 167.097 339.293C164.806 339.293 163.698 339.415 162.669 339.415C161.64 339.415 161.195 338.842 161.195 338.227C161.195 336.503 163.693 337.368 163.693 334.499V314.909C163.693 312.04 161.195 312.899 161.195 311.138C161.195 310.523 161.725 309.993 162.791 309.993C163.857 309.993 164.801 310.115 167.092 310.115C169.383 310.115 170.491 309.993 171.557 309.993C172.623 309.993 173.032 310.523 173.032 311.138C173.032 312.899 170.491 312.04 170.491 314.909V321.835C170.491 322.614 170.735 322.901 171.722 322.901H181.639C182.62 322.901 182.869 322.614 182.869 321.835V314.909C182.869 312.04 180.371 312.899 180.371 311.138C180.371 310.523 180.78 309.993 181.845 309.993C182.911 309.993 183.977 310.115 186.274 310.115C188.57 310.115 189.715 309.993 190.739 309.993C191.762 309.993 192.213 310.523 192.213 311.138C192.213 312.899 189.673 312.04 189.673 314.909V334.499C189.673 337.368 192.213 336.509 192.213 338.227H192.218Z" fill="black"/>
<path d="M222.425 331.136C222.425 331.958 222.097 332.653 221.317 334.334L219.434 338.349C218.819 339.659 218.247 340.274 217.387 340.274C216.242 340.274 216.035 339.293 214.312 339.293H201.197C198.943 339.293 197.713 339.415 196.811 339.415C195.703 339.415 195.294 338.884 195.294 338.227C195.294 336.503 197.792 337.368 197.792 334.499V314.909C197.792 312.04 195.294 312.899 195.294 311.18C195.294 310.523 195.703 309.993 196.811 309.993C197.67 309.993 198.9 310.115 201.197 310.115H212.715C214.354 310.115 214.561 309.133 215.627 309.133C216.528 309.133 217.101 309.706 217.801 311.223L219.482 314.871C220.219 316.431 220.548 317.125 220.548 317.947C220.548 318.806 219.933 319.257 219.36 319.257C218.703 319.257 218.294 318.849 217.679 318.191C214.81 315.158 213.129 313.275 209.73 313.275H207.147C205.015 313.275 204.607 313.848 204.607 315.2V321.84C204.607 322.619 204.851 322.906 205.837 322.906H208.213C210.674 322.906 210.631 319.915 212.27 319.915C213.007 319.915 213.5 320.366 213.5 321.511C213.5 322.455 213.378 323.479 213.378 324.46C213.378 325.441 213.5 326.507 213.5 327.451C213.5 328.596 213.007 329.047 212.27 329.047C210.631 329.047 210.674 326.056 208.213 326.056H205.837C204.856 326.056 204.607 326.342 204.607 327.079V334.17C204.607 335.565 205.057 336.137 207.147 336.137H211.161C214.688 336.137 216.656 334.17 219.562 330.935C220.177 330.198 220.585 329.826 221.243 329.826C221.816 329.826 222.431 330.32 222.431 331.136H222.425Z" fill="black"/>
<path d="M28.8432 372.618C34.6608 372.947 39.9481 376.335 40.1761 382.609C40.5367 392.468 32.1524 395.294 23.8741 395.639C16.6618 395.936 9.32745 395.528 2.12572 395.475C1.52646 395.284 0.778705 395.31 0.656732 394.557C0.386269 392.903 2.58179 392.691 2.82574 391.084C3.31893 380.297 2.89468 369.415 3.04317 358.591C2.96892 357.78 2.85225 356.915 2.38557 356.231C1.71737 355.245 0.444605 355.176 0.656732 353.702C0.757493 353.001 1.54767 352.959 2.12572 352.784C9.73579 352.8 17.5209 352.227 25.1309 352.62C31.0387 352.922 36.5805 355.208 37.026 361.863C37.3654 366.922 35.1487 370.173 30.5084 371.96C29.9622 372.173 29.2144 372.21 28.8432 372.618ZM15.0019 369.982H20.9786C21.4824 369.982 22.9938 369.473 23.4711 369.203C25.6825 367.956 26.0325 364.812 25.6666 362.531C24.8764 357.61 18.6239 358.66 15.0019 358.538V369.982ZM15.0019 375.89V387.143C15.0019 387.435 15.5163 388.421 15.7549 388.655C17.2663 390.177 22.4422 389.901 24.3514 389.185C27.6871 387.934 28.3818 384.078 27.7878 380.907C26.6424 374.84 19.6421 375.996 15.0072 375.885L15.0019 375.89Z" fill="black"/>
<path d="M187.859 353.288C188.252 352.816 190.251 352.651 190.903 352.62C196.556 352.317 203.737 352.381 209.417 352.62C221.593 353.134 230.295 358.4 231.006 371.419C231.764 385.393 225.21 394.955 210.679 395.639C203.557 395.973 196.297 395.501 189.18 395.475C188.58 395.284 187.833 395.31 187.711 394.557C187.44 392.903 189.636 392.69 189.88 391.084C190.373 380.297 189.949 369.415 190.097 358.591C190.023 357.78 189.906 356.915 189.44 356.231C189.09 355.717 187.849 354.969 187.727 354.55C187.637 354.253 187.663 353.532 187.865 353.288H187.859ZM202.051 358.538V386.014C202.051 386.602 202.687 388.024 203.122 388.464C204.527 389.89 209.125 389.768 210.992 389.413C218.745 387.949 219.127 377.407 218.798 371.165C218.326 362.346 214.428 358.867 205.768 358.527C204.532 358.48 203.286 358.575 202.051 358.527V358.538Z" fill="black"/>
<path d="M59.5591 390.416C59.75 392.033 60.519 392.213 61.4524 393.179C62.163 393.91 62.2584 394.897 61.1766 395.3C60.641 395.496 59.3576 395.607 58.7477 395.639C56.2711 395.777 48.1095 395.968 46.0943 395.321C45.7496 395.21 45.3943 395.151 45.267 394.764C44.6943 393.014 47.1656 392.712 47.3936 391.089C47.8868 380.302 47.4625 369.42 47.611 358.596C47.5368 357.785 47.4201 356.921 46.9534 356.236C46.2693 355.224 44.8216 355.086 45.267 353.5C45.2988 353.378 45.3413 353.336 45.4314 353.256C45.9299 352.8 47.7118 352.667 48.4171 352.63C53.4711 352.36 59.8402 352.424 64.9153 352.63C71.714 352.906 79.1014 354.593 81.0211 362.065C82.681 368.535 79.9817 375.227 73.7823 377.974L81.5355 388.962C82.3575 389.917 83.275 390.983 84.2296 391.805C84.7758 392.277 86.2289 393.104 86.5523 393.507C87.0668 394.144 86.7539 394.844 86.0592 395.135C84.1447 395.936 77.3142 395.772 75.1876 395.305C72.9019 394.801 72.0906 393.666 70.786 391.906C67.9594 388.087 65.5411 383.946 62.6456 380.17H59.5591V390.421V390.416ZM59.5591 374.506C63.6108 374.262 67.8109 373.626 68.9139 369.076C70.0223 364.509 69.1738 358.411 63.2714 358.411H59.5591V374.506Z" fill="black"/>
<path d="M269.39 391.8C269.539 392.855 270.181 393.062 270.833 393.624C271.485 394.186 271.533 395.151 270.626 395.422C269.237 395.841 264.167 395.745 262.528 395.629C261.733 395.575 260.481 395.56 260.38 394.632C260.28 393.725 261.568 393.343 261.987 392.579C262.226 392.144 262.279 391.656 262.342 391.174V358.591C262.268 357.78 262.152 356.915 261.685 356.231C261.017 355.245 259.744 355.176 259.956 353.702C260.02 353.267 260.242 353.155 260.635 353.001C262.295 352.355 270.075 352.503 272.222 352.62C273.771 352.705 275.447 352.869 276.433 354.2L294.374 383.564L295.068 383.617V357.589C294.915 356.608 295.021 355.881 294.252 355.139C293.796 354.698 293.074 354.592 293.043 353.823C293.016 353.235 293.297 352.986 293.828 352.842C295.233 352.461 301.575 352.455 303.029 352.784C303.628 352.922 304.041 353.129 304.01 353.818C303.973 354.72 302.477 354.889 302.143 356.364C301.788 368.863 302.085 381.416 301.989 393.937C301.894 394.738 301.416 395.072 300.7 395.294C298.913 395.851 291.505 395.835 289.744 395.22C289.304 395.066 288.922 394.801 288.572 394.504L269.99 364.085L269.38 364.064V391.794L269.39 391.8Z" fill="black"/>
<path d="M109.505 352.286C122.71 351.57 131.72 357.753 132.939 371.303C134.159 384.815 128.172 394.6 114.124 395.883C99.5771 397.214 89.7556 390.352 89.1351 375.328C88.5623 361.476 95.5254 353.044 109.505 352.286ZM109.505 359.079C103.125 359.731 101.571 366.758 101.343 372.051C101.004 379.809 102.181 390.283 112.485 389.222C120.461 388.4 121.15 378.414 120.864 372.178C120.525 364.881 118.154 358.199 109.505 359.079Z" fill="black"/>
<path d="M158.469 352.286C171.674 351.57 180.684 357.753 181.904 371.303C183.124 384.815 177.136 394.6 163.088 395.883C148.541 397.214 138.72 390.352 138.099 375.328C137.527 361.476 144.49 353.044 158.469 352.286ZM158.469 359.079C152.089 359.731 150.535 366.758 150.307 372.051C149.968 379.809 151.145 390.283 161.449 389.222C169.425 388.4 170.115 378.414 169.828 372.178C169.489 364.881 167.118 358.199 158.469 359.079Z" fill="black"/>
<path d="M330.669 352.285C335.431 352.015 345.565 353.383 347.793 358.368C349.384 361.927 346.722 368.116 342.341 364.446C339.308 361.905 337.998 359.19 333.405 358.909C321.579 358.188 320.402 373.647 322.825 381.93C324.978 389.286 331.194 390.718 338.061 388.978L338.125 388.665C337.881 385.441 338.433 381.787 338.104 378.616C338.051 378.117 337.865 377.412 337.595 376.988C337.208 376.378 336.014 375.704 335.823 375.238C335.511 374.469 335.755 373.896 336.508 373.599C337.934 373.032 344.897 373.138 346.748 373.254C348.016 373.334 349.718 373.451 349.707 375.079C349.389 379.878 350.116 385.192 349.707 389.928C349.447 392.945 345.019 394.022 342.527 394.7C328.585 398.508 312.208 394.976 309.944 378.584C307.934 364.053 315.767 353.139 330.669 352.291V352.285Z" fill="black"/>
<path d="M236.951 394.971C236.707 394.674 236.744 394 236.882 393.656C237.073 393.189 237.937 392.706 238.298 392.309C238.929 391.619 239.035 390.94 239.173 390.039V358.469C239.146 357.949 239.024 357.159 238.823 356.692C238.409 355.738 235.524 354.242 237.227 353.134C237.736 352.8 239.332 352.662 239.99 352.625C243.065 352.455 247.244 352.455 250.32 352.625C250.941 352.657 252.309 352.779 252.845 352.996C253.057 353.081 253.438 353.383 253.502 353.595C253.974 355.181 251.524 355.68 251.323 357.149C250.893 368.036 251.264 379.003 251.132 389.917C251.222 390.479 251.254 391.041 251.492 391.566C251.938 392.547 254.764 394.027 253.088 395.13C252.542 395.491 251.026 395.602 250.325 395.639C248.013 395.761 239.21 395.936 237.476 395.257C237.349 395.21 237.02 395.056 236.951 394.966V394.971Z" fill="black"/>
<g style="mix-blend-mode:darken">
<path d="M183.574 289.337C194.16 288.594 231.924 282.967 250.103 240.844C250.84 239.131 252.102 237.694 253.704 236.74C260.81 232.492 280.586 226.579 297.02 277.06C297.126 277.394 297.185 277.744 297.185 278.089C297.185 280.215 299.168 281.79 301.242 281.302L317.331 277.505C319.384 277.023 320.466 274.758 319.543 272.854L301.793 236.193C301.629 235.854 301.406 235.541 301.135 235.276L278.379 212.918C278.173 212.711 277.934 212.536 277.679 212.393L252.044 198.042C251.397 197.682 250.649 197.549 249.917 197.66L192.319 206.782C191.02 206.989 189.97 207.943 189.641 209.216L175.296 264.693C175.164 265.212 175.158 265.759 175.28 266.278L180.138 286.802C180.509 288.377 181.962 289.448 183.58 289.337H183.574Z" fill="#F3A758"/>
</g>
<g style="mix-blend-mode:darken">
<path d="M328.452 309.955C328.521 307.664 328.5 305.368 328.32 303.082C328.282 302.616 328.235 302.154 328.192 301.688L328.171 301.566C327.97 300.59 327.826 299.604 327.593 298.628C327.317 297.477 326.994 296.337 326.607 295.218C326.58 295.144 326.495 294.905 326.41 294.672C326.4 294.645 326.394 294.624 326.384 294.603C326.267 294.343 326.129 294.035 326.087 293.95C325.583 292.943 325 291.993 324.385 291.049C324.316 290.981 324.252 290.912 324.199 290.848C323.923 290.562 323.663 290.254 323.393 289.973C322.338 288.875 321.595 287.624 321.144 286.298C320.991 285.842 320.556 285.534 320.078 285.566C320.078 285.566 320.073 285.566 320.068 285.566C311.832 286.123 303.034 288.186 294.14 291.32C286.016 294.184 278.592 297.806 272.143 301.905C271.856 302.085 271.676 302.393 271.644 302.727L269.104 330.993C269.025 331.895 270.011 332.494 270.775 332.006C277.441 327.748 285.979 323.362 294.146 320.487C305.495 316.489 316.706 314.516 326.729 314.394C327.238 314.373 327.715 314.299 328.16 314.171C328.749 314.002 329.051 313.365 328.866 312.777C328.574 311.864 328.426 310.915 328.457 309.955H328.452Z" fill="#F3A758"/>
</g>
<g style="mix-blend-mode:darken">
<path d="M75.4901 316.319C75.1772 316.022 74.5567 315.593 74.3711 315.46L74.2279 315.359C73.5226 314.94 72.8226 314.522 72.1278 314.092C68.6596 311.928 65.3557 309.531 61.654 307.765C61.3571 307.622 61.0548 307.484 60.7525 307.352C60.6093 307.293 60.4078 307.214 60.1479 307.108C59.2782 306.789 58.4138 306.455 57.5388 306.148C55.6402 305.48 53.7258 304.859 51.8219 304.217C48.0142 302.929 44.3497 301.354 40.6216 299.874C38.7231 299.121 36.798 298.416 34.8199 297.907C34.4752 297.816 33.4941 297.647 33.2289 297.578L32.9479 297.53C32.1524 297.482 31.3516 297.482 30.5561 297.509C30.1054 297.525 29.6599 297.551 29.2091 297.588L28.9811 297.631C28.6788 297.7 27.65 297.87 27.4485 297.917C26.6795 298.103 25.9371 298.352 25.184 298.58L24.8499 298.713C24.4628 298.904 24.0862 299.105 23.715 299.323C23.4446 299.482 22.7445 300.065 22.5324 300.219C22.4529 300.277 22.3786 300.341 22.3097 300.41C22.1082 300.606 21.9066 300.807 21.7051 301.009C22.5377 300.182 21.7528 301.083 21.3445 301.619L21.1112 302.07C21.0369 302.287 20.9627 302.51 20.9043 302.733C20.8354 302.982 20.7187 303.311 20.618 303.645C20.618 303.703 20.6021 303.825 20.5808 304.021C20.5437 304.387 20.5172 304.758 20.496 305.124C20.3793 306.922 20.3899 308.725 20.3899 310.528C20.3899 311.324 20.2892 312.093 20.1089 312.819C19.9179 313.593 20.4483 314.378 21.2437 314.41C21.249 314.41 21.2543 314.41 21.2596 314.41C31.2827 314.527 42.4936 316.505 53.8424 320.504C61.8874 323.335 70.2823 327.631 76.9007 331.826C77.7916 332.388 78.9424 331.683 78.847 330.633L77.8129 319.135C77.7863 318.854 77.6697 318.589 77.4788 318.382C76.8318 317.688 76.1795 316.993 75.4901 316.341V316.319Z" fill="#F3A758"/>
</g>
<path d="M102.998 197.766C102.998 197.766 52.3946 200.503 27.9098 274.954" stroke="black" stroke-width="6.36383" stroke-linecap="round" stroke-linejoin="round"/>
<path d="M79.0802 322.62C72.1914 318 62.7941 313.031 53.8423 309.876C42.4935 305.877 31.2826 303.905 21.2595 303.783C9.7198 303.337 14.0896 274.016 27.915 274.949C36.1509 275.506 44.9489 277.569 53.8423 280.703C62.1577 283.63 69.736 287.359 76.296 291.58" fill="#D98227"/>
<path d="M79.0802 322.62C72.1914 318 62.7941 313.031 53.8423 309.876C42.4935 305.877 31.2826 303.905 21.2595 303.783C9.7198 303.337 14.0896 274.016 27.915 274.949C36.1509 275.506 44.9489 277.569 53.8423 280.703C62.1577 283.63 69.736 287.359 76.296 291.58" stroke="black" stroke-width="6.36383" stroke-linejoin="round"/>
<path d="M77.0438 251.997C75.7923 275.506 79.3825 298.967 82.2463 322.28C82.4796 324.025 81.2546 325.621 79.5098 325.854C77.7651 326.088 76.1688 324.857 75.9355 323.118C74.9226 311.265 74.0051 299.381 73.4589 287.454C72.9657 275.538 72.674 263.6 74.0316 251.7C74.3021 249.775 77.1605 250.024 77.0438 252.002V251.997Z" fill="black"/>
<path d="M268.897 322.62C275.786 318 285.183 313.031 294.135 309.876C305.484 305.877 316.695 303.905 326.718 303.783C338.258 303.337 333.888 274.016 320.063 274.949C311.827 275.506 303.029 277.569 294.135 280.703C285.82 283.63 278.242 287.359 271.682 291.58" fill="#D98227"/>
<path d="M268.897 322.62C275.786 318 285.183 313.031 294.135 309.876C305.484 305.877 316.695 303.905 326.718 303.783C338.258 303.337 333.888 274.016 320.063 274.949C311.827 275.506 303.029 277.569 294.135 280.703C285.82 283.63 278.242 287.359 271.682 291.58" stroke="black" stroke-width="6.36383" stroke-linejoin="round"/>
<path d="M273.951 251.695C276.354 275.426 273.845 299.307 272.063 322.964C271.915 324.714 270.377 326.014 268.622 325.87C266.871 325.722 265.572 324.184 265.715 322.434C267.996 304.833 270.276 287.253 271.056 269.54C271.289 263.669 271.342 257.799 270.928 251.981C270.828 250.051 273.665 249.748 273.946 251.695H273.951Z" fill="black"/>
<path d="M21.2542 303.788C19.8436 310.735 18.6344 314.702 17.6639 322.62" stroke="black" stroke-width="6.36383" stroke-linecap="round" stroke-linejoin="round"/>
<path d="M244.98 197.766C244.98 197.766 295.583 200.503 320.068 274.954" stroke="black" stroke-width="6.36383" stroke-linecap="round" stroke-linejoin="round"/>
<path d="M326.723 303.788C328.134 310.735 329.343 314.702 330.314 322.62" stroke="black" stroke-width="6.36383" stroke-linecap="round" stroke-linejoin="round"/>
<g style="mix-blend-mode:overlay" opacity="0.2">
<path d="M76.0627 290.18C77.362 306.89 79.0803 322.62 79.0803 322.62L56.7485 310.963L65.4511 283.572L76.0627 290.18Z" fill="black"/>
</g>
<g style="mix-blend-mode:overlay" opacity="0.2">
<path d="M302.355 276.519C302.355 276.519 311.1 302.064 311.44 306.333L330.314 303.783L334.63 293.542L329.725 280.565L324.888 274.949L302.35 276.514L302.355 276.519Z" fill="black"/>
</g>
<g style="mix-blend-mode:overlay" opacity="0.2">
<path d="M279.97 284.999L285.804 314.044L268.903 322.625C268.903 322.625 267.625 301.534 271.692 291.591C274.948 283.625 281.45 288.499 279.976 285.004L279.97 284.999Z" fill="black"/>
</g>
<g style="mix-blend-mode:darken">
<path d="M272.445 251.843L283.067 285.269L273.177 290.641C273.177 290.641 275.76 259.697 272.445 251.838V251.843Z" fill="#F3A758"/>
</g>
<g style="mix-blend-mode:darken">
<path d="M75.5377 251.843L64.4487 286.743L76.1794 291.591C74.8218 274.477 73.8354 255.884 75.5377 251.843Z" fill="#F3A758"/>
</g>
<path d="M173.461 239.72L153.51 262.11C150.371 271.041 173.991 291.718 173.991 291.718C173.991 291.718 197.617 271.041 194.472 262.11L174.522 239.72H173.461Z" fill="#D98227" stroke="black" stroke-width="6.36383"/>
<path d="M175.853 262.476L173.917 280.576L172.273 262.444L175.853 262.476Z" fill="black"/>
<g style="mix-blend-mode:overlay" opacity="0.3">
<path d="M196.169 224.76L216.12 247.15C218.544 254.039 208.271 263.579 201.971 269.561C200.104 271.332 195.671 268.638 195.671 268.638C195.671 268.638 193.82 275.172 191.269 272.69C184.603 266.209 172.878 253.604 175.148 247.15L195.098 224.76H196.159H196.169Z" fill="black"/>
</g>
<path d="M201.473 219.457L221.423 241.847C224.563 250.777 200.942 271.454 200.942 271.454C200.942 271.454 177.317 250.777 180.461 241.847L200.412 219.457H201.473Z" fill="#D98227" stroke="black" stroke-width="6.36383"/>
<path d="M200.385 232.916C204.501 240.399 203.764 249.992 201.398 257.91C201.881 253.906 201.96 249.807 201.276 245.824C200.799 243.141 200.046 240.59 198.863 238.182C198.354 237.217 197.797 236.188 197.092 235.377L200.385 232.916Z" fill="black"/>
<g style="mix-blend-mode:overlay" opacity="0.3">
<path d="M151.813 224.76L131.863 247.15C129.333 254.341 141.175 265.966 147.041 271.454C148.457 272.78 153.224 268.548 153.224 268.548C153.224 268.548 155.314 274.037 156.125 273.252C162.664 266.963 175.163 253.8 172.825 247.15L152.874 224.76H151.813Z" fill="black"/>
</g>
<path d="M146.51 219.457L126.56 241.847C123.42 250.777 147.041 271.454 147.041 271.454C147.041 271.454 170.666 250.777 167.522 241.847L147.571 219.457H146.51Z" fill="#D98227" stroke="black" stroke-width="6.36383"/>
<path d="M151.315 234.369C148.642 238.919 147.518 244.323 147.486 249.589C147.449 252.904 147.974 256.213 148.769 259.427C146.059 253.142 144.882 246.179 145.874 239.359C146.219 236.984 146.754 234.608 147.714 232.38L151.315 234.369Z" fill="black"/>
<path d="M173.991 213.406L189.922 224.781C199.07 241.693 173.991 262.275 173.991 262.275C173.991 262.275 148.913 241.693 158.061 224.781L173.991 213.406Z" fill="#D98227" stroke="black" stroke-width="6.36383"/>
<g style="mix-blend-mode:overlay" opacity="0.3">
<path d="M168.142 248.073C165.453 241.359 168.306 233.425 173.991 233.425C179.676 233.425 182.529 241.353 179.841 248.073C183.166 242.647 186.04 235.239 182.614 228.907C182.614 228.907 184.158 219.594 173.371 219.594C162.584 219.594 165.368 228.907 165.368 228.907C161.942 235.239 164.822 242.647 168.142 248.073Z" fill="black"/>
</g>
<path d="M175.853 221.249L173.917 248.073L172.273 221.228L175.853 221.249Z" fill="black"/>
<g style="mix-blend-mode:overlay" opacity="0.3">
<path d="M215.659 208.06C215.659 208.06 240.382 221.557 222.526 252.183C221.169 254.511 216.189 258.801 213.845 257.396C205.635 252.48 187.043 238.437 185.987 211.661L215.659 208.065V208.06Z" fill="black"/>
</g>
<path d="M220.962 202.757C220.962 202.757 249.588 218.38 222.993 254.155C222.993 254.155 192.648 240.786 191.29 206.352L220.962 202.757Z" fill="#D98227" stroke="black" stroke-width="6.36383"/>
<path d="M218.13 214.132C221.63 218.295 221.884 229.225 221.975 234.634C221.275 231.447 220.447 228.138 219.408 225.062C218.607 222.798 217.748 220.554 216.491 218.555C216.168 218.062 215.823 217.526 215.383 217.171C215.383 217.171 215.335 217.144 215.431 217.235L218.13 214.132Z" fill="black"/>
<g style="mix-blend-mode:overlay" opacity="0.3">
<path d="M132.324 208.06C132.324 208.06 108.089 221.292 124.937 251.276C126.401 253.88 131.619 258.875 133.735 257.634C141.721 252.941 160.924 238.888 161.996 211.661L132.324 208.065V208.06Z" fill="black"/>
</g>
<path d="M127.021 202.757C127.021 202.757 98.3944 218.38 124.99 254.155C124.99 254.155 155.335 240.786 156.692 206.352L127.021 202.757Z" fill="#D98227" stroke="black" stroke-width="6.36383"/>
<path d="M131.741 217.155C130.33 219.191 129.789 222.808 129.344 225.598C129.02 228.032 128.835 230.524 128.734 232.99L128.66 235.483C128.395 234.003 128.039 232.009 127.838 230.546C127.276 226.308 126.825 222.013 127.477 217.722C127.679 216.641 127.875 215.585 128.495 214.62L131.741 217.15V217.155Z" fill="black"/>
<path d="M178.86 196.266C162.637 207.837 192.155 237.832 192.155 237.832C192.155 237.832 211.888 218.841 203.981 196.266H178.854H178.86Z" fill="#D98227" stroke="black" stroke-width="6.36383"/>
<path d="M191.285 200.158C193.82 203.139 194.483 207.095 194.859 210.839C195.315 216.524 194.456 222.373 193.258 227.926C193.565 222.941 193.555 217.754 192.669 212.838C192.16 210.261 191.402 207.567 190.118 205.286C189.652 204.523 189.201 203.78 188.533 203.202C188.527 203.308 191.274 200.142 191.285 200.158Z" fill="black"/>
<path d="M169.123 196.266C185.345 207.837 155.828 237.832 155.828 237.832C155.828 237.832 136.095 218.841 144.002 196.266H169.128H169.123Z" fill="#D98227" stroke="black" stroke-width="6.36383"/>
<path d="M159.047 201.346C157.387 205.477 156.936 210.017 156.586 214.461C156.342 217.807 156.348 221.562 156.438 224.945L156.597 228.456C155.69 223.948 154.873 219.054 154.529 214.472C154.2 209.609 153.982 204.586 155.234 199.803L159.047 201.346Z" fill="black"/>
<g style="mix-blend-mode:overlay" opacity="0.3">
<path d="M160.028 195.523C159.01 217.017 125.377 225.704 125.377 225.704C125.377 225.704 117.406 191.896 135.957 180.987L164.223 174.894L160.028 195.523Z" fill="black"/>
</g>
<path d="M161.327 187.786C160.415 206.989 130.367 214.747 130.367 214.747C130.367 214.747 123.245 184.54 139.818 174.798L165.071 169.357L161.322 187.786H161.327Z" fill="#D98227" stroke="black" stroke-width="6.36383"/>
<path d="M162.117 182.477C159.084 188.587 154.667 194.701 148.213 197.401C152.243 194.521 154.661 190.066 156.295 185.522C156.809 184.063 157.281 182.515 157.573 181.014L162.117 182.477Z" fill="black"/>
<path d="M150.557 184.084C150.599 184.053 150.488 184.074 150.419 184.084C149.337 184.291 148.271 184.747 147.295 185.288C144.516 186.821 142.215 189.34 140.751 192.235C140.565 192.601 140.237 193.174 140.104 193.556C139.78 194.367 139.287 195.529 139.086 196.377C138.624 197.798 138.354 199.4 138.083 200.874C137.861 198.843 137.664 196.637 137.834 194.585C138.2 187.823 141.78 181.035 147.847 177.678C148.016 177.593 148.138 177.519 148.43 177.402L150.557 184.084Z" fill="black"/>
<g style="mix-blend-mode:overlay" opacity="0.3">
<path d="M158.342 178.325C158.342 178.325 146.394 195.751 138.407 196.266L142.782 185.256L158.342 178.325Z" fill="black"/>
</g>
<g style="mix-blend-mode:overlay" opacity="0.3">
<path d="M187.265 196.054C188.283 217.547 221.916 226.234 221.916 226.234C221.916 226.234 229.887 192.426 211.336 181.518L183.07 175.424L187.265 196.054Z" fill="black"/>
</g>
<path d="M186.655 187.786C187.568 206.989 217.615 214.747 217.615 214.747C217.615 214.747 224.738 184.54 208.165 174.798L182.911 169.357L186.661 187.786H186.655Z" fill="#D98227" stroke="black" stroke-width="6.36383"/>
<path d="M190.405 181.014C191.412 185.659 193.268 190.22 196.196 194.017C197.219 195.274 198.402 196.425 199.765 197.406C196.594 196.149 193.873 193.863 191.619 191.297C189.334 188.619 187.371 185.681 185.865 182.483L190.41 181.019L190.405 181.014Z" fill="black"/>
<path d="M199.553 177.397C203.933 179.487 207.189 183.734 208.844 188.152C209.348 189.61 209.692 191.069 209.952 192.564C209.989 192.856 210.111 194.261 210.148 194.579C210.26 195.507 210.17 196.812 210.191 197.756C210.117 198.806 209.995 199.845 209.899 200.869C209.703 199.845 209.528 198.833 209.316 197.836C209.04 196.966 208.775 195.757 208.43 194.935C208.324 194.659 207.836 193.445 207.741 193.206C207.157 192.023 206.479 190.83 205.731 189.769C203.631 187.022 200.91 184.832 197.564 184.079C197.495 184.068 197.384 184.047 197.426 184.079L199.553 177.397Z" fill="black"/>
<g style="mix-blend-mode:overlay" opacity="0.3">
<path d="M189.222 178.325C189.222 178.325 201.17 195.751 209.157 196.266L204.782 185.256L189.222 178.325Z" fill="black"/>
</g>
<g style="mix-blend-mode:overlay" opacity="0.3">
<path d="M207.847 184.068L206.876 187.293L209.576 196.266C209.576 196.266 216.486 197.586 215.865 194.839C215.245 192.098 214.794 183.199 207.847 184.068Z" fill="black"/>
</g>
<path d="M214.248 181.274C215.16 210.34 243.866 225.789 243.866 225.789C256.679 198.207 241.755 175.361 241.755 175.361" fill="#C65F28"/>
<g style="mix-blend-mode:overlay" opacity="0.3">
<path d="M243.675 177.211C243.675 177.211 248.899 191.705 250.76 206.119C251.651 213.013 247.462 223.948 244.359 222.644C240.796 221.148 236.728 219.52 235.715 219.457C234.474 219.377 243.182 192.877 221.975 201.182C221.975 201.182 196.217 181.719 243.675 177.211Z" fill="black"/>
</g>
<path d="M230.624 182.769C234.474 191.472 236.394 200.943 236.93 210.404C236.007 205.843 234.734 201.367 233.069 197.035C231.43 192.797 229.505 188.629 227.055 184.816L230.624 182.769Z" fill="black"/>
<path d="M214.248 181.274C215.16 210.34 243.866 225.789 243.866 225.789C256.679 198.207 241.755 175.361 241.755 175.361" stroke="black" stroke-width="6.36383"/>
<path d="M133.73 181.274C132.817 210.34 104.111 225.789 104.111 225.789C91.2988 198.207 106.222 175.361 106.222 175.361" fill="#C65F28"/>
<g style="mix-blend-mode:overlay" opacity="0.3">
<path d="M102.356 180.743C102.356 180.743 104.848 192.331 109.483 192.877C114.118 193.423 123.383 187.834 127.663 197.401C131.942 206.968 130.155 182.154 130.155 182.154C130.155 182.154 113.758 176.973 102.351 180.743H102.356Z" fill="black"/>
</g>
<path d="M133.73 181.274C132.817 210.34 104.111 225.789 104.111 225.789C91.2988 198.207 106.222 175.361 106.222 175.361" stroke="black" stroke-width="6.36383"/>
<path d="M118.944 184.397C118.944 184.397 112.994 194.5 111.053 210.404Z" fill="#C65F28"/>
<path d="M120.716 185.442C116.484 192.018 113.689 199.49 111.796 207.068C111.52 208.171 111.302 209.29 111.053 210.409C111.292 205.817 111.864 201.256 112.846 196.754C113.874 192.172 115.184 187.643 117.173 183.358L120.716 185.447V185.442Z" fill="black"/>
<path d="M186.555 182.154C195.703 199.066 173.991 221.238 173.991 221.238C173.991 221.238 152.28 199.066 161.428 182.154L173.991 164.293L186.549 182.154H186.555Z" fill="#D98227" stroke="black" stroke-width="6.36383"/>
<g style="mix-blend-mode:overlay" opacity="0.3">
<path d="M168.407 202.014C165.84 195.603 168.566 188.03 173.991 188.03C179.417 188.03 182.142 195.603 179.576 202.014C182.747 196.833 185.494 189.764 182.227 183.718C182.227 183.718 183.701 174.83 173.403 174.83C163.104 174.83 165.761 183.718 165.761 183.718C162.489 189.764 165.236 196.833 168.412 202.014H168.407Z" fill="black"/>
</g>
<path d="M175.853 184.228L173.917 203.918L172.273 184.201L175.853 184.228Z" fill="black"/>
<path d="M187.069 180.727H161.937C161.937 180.727 166.323 166.939 173.991 166.939C181.66 166.939 187.074 180.727 187.074 180.727H187.069Z" fill="#D98227"/>
<path d="M191.725 144.952C198.307 144.252 211.511 157.77 218.957 158.714C226.398 159.658 231.839 144.443 234.83 144.443C237.821 144.443 247.08 166.494 247.08 170.62C247.08 174.751 236.267 188.735 196.053 180.738C184.958 178.532 175.927 168.079 173.917 167.782C171.907 168.079 162.876 178.532 151.782 180.738C111.568 188.735 100.754 174.751 100.754 170.62C100.754 166.488 110.008 144.443 113.005 144.443C116.001 144.443 121.437 159.658 128.877 158.714C136.318 157.77 149.523 144.252 156.109 144.952C156.109 144.952 166.01 152.127 173.917 152.127C181.824 152.127 191.725 144.952 191.725 144.952Z" fill="#C65F28"/>
<path d="M158.342 178.325C163.104 180.52 168.407 181.74 173.997 181.74C180.164 181.74 185.987 180.25 191.115 177.609" stroke="black" stroke-width="6.36383" stroke-linejoin="round"/>
<g style="mix-blend-mode:overlay" opacity="0.3">
<g style="mix-blend-mode:overlay">
<path d="M121.431 82.104C121.431 82.104 215.722 68.7823 223.444 99.9863C223.444 99.9863 231.616 135.783 210.742 154.036C210.742 154.036 209.305 156.688 215.659 158.661C222.017 160.634 247.069 135.953 236.224 80.985C236.224 80.985 155.828 56.3039 121.426 82.1093L121.431 82.104Z" fill="black"/>
</g>
<g style="mix-blend-mode:overlay">
<path d="M184.932 123.776L193.762 130.432L199.765 147.795L186.783 145.774L184.932 123.776Z" fill="black"/>
</g>
</g>
<path d="M113.652 81.4093C113.652 81.4093 102.441 153.522 130.595 159.154C130.595 159.154 146.261 143.976 161.195 145.769" stroke="black" stroke-width="6.36383" stroke-linecap="round" stroke-linejoin="round"/>
<path d="M161.067 146.851C150.912 147.673 142.342 153.697 134.684 159.971C133.82 160.687 132.971 161.514 132.144 162.246C130.229 163.932 128.167 165.353 125.955 166.589C121.569 168.976 116.096 170.763 111.133 169.177C110.507 168.976 110.533 168.026 111.18 167.878C115.614 166.748 119.172 164.314 122.715 161.609C125.451 159.557 127.827 157.096 130.389 154.89C135.151 150.923 140.454 147.646 146.404 145.604C151.14 144.019 156.464 143.271 161.333 144.692C162.505 145.042 162.303 146.792 161.073 146.851H161.067Z" fill="black"/>
<path d="M128.84 170.285C138.433 167.984 147.963 164.123 155.42 157.547C157.864 155.383 160.001 152.912 161.815 150.197C162.133 149.698 162.807 149.56 163.3 149.889C163.761 150.197 163.899 150.812 163.634 151.289C158.538 160.512 148.913 166.334 139.006 169.172C135.708 170.116 132.345 170.763 128.92 170.964C128.511 170.985 128.416 170.36 128.84 170.285Z" fill="black"/>
<path d="M234.331 81.4093C234.331 81.4093 245.542 153.522 217.387 159.154C217.387 159.154 201.722 143.976 186.788 145.769" stroke="black" stroke-width="6.36383" stroke-linecap="round" stroke-linejoin="round"/>
<path d="M186.655 144.692C196.54 142.046 206.823 146.941 214.683 152.599C218.48 155.277 221.55 158.799 225.273 161.609C228.816 164.314 232.374 166.748 236.802 167.878C237.444 168.021 237.492 168.986 236.855 169.177C228.959 171.532 220.14 166.335 214.545 161.063C209.979 157.027 204.914 153.358 199.521 150.6C195.575 148.606 191.412 147.148 186.894 146.851C185.695 146.782 185.489 145.026 186.655 144.698V144.692Z" fill="black"/>
<path d="M219.063 170.964C205.561 169.904 191.206 163.466 184.349 151.289C184.062 150.78 184.248 150.133 184.757 149.847C185.25 149.571 185.865 149.73 186.168 150.197C191.63 158.512 200.369 163.959 209.565 167.385C212.683 168.546 215.897 169.554 219.143 170.291C219.546 170.36 219.503 170.996 219.063 170.97V170.964Z" fill="black"/>
<path d="M111.567 118.224C111.446 137.241 109.733 149.046 109.733 149.046C108.025 159.239 100.908 166.918 96.4852 170.625C96.4852 170.625 109.929 183.379 134.217 183.379C152.434 183.379 166.047 176.008 173.896 164.436L173.997 164.288C181.829 175.939 195.48 183.379 213.771 183.379C238.059 183.379 251.503 170.625 251.503 170.625C247.08 166.918 239.963 159.239 238.255 149.046C238.255 149.046 236.542 137.247 236.42 118.224" stroke="black" stroke-width="6.36383"/>
<path d="M98.5588 113.695C102.324 112.385 106.089 114.644 106.938 118.484C108.2 122.387 108.698 126.672 110.178 130.421C110.274 130.676 110.47 131.042 110.549 131.19C110.539 131.19 110.512 131.164 110.395 131.095C110.088 130.867 109.17 130.867 108.932 131.174C108.942 131.19 109.075 131.084 109.234 130.915C109.404 130.74 109.6 130.522 109.955 130.193C111.727 128.597 114.346 130.74 113.174 132.776C111.154 136.541 107.675 136.234 105.898 132.437C104.207 128.74 103.295 124.906 102.642 120.998C102.435 119.831 102.563 118.489 101.9 117.492C101.221 116.416 99.7467 116.076 98.5694 115.769C97.5459 115.493 97.5459 113.976 98.5482 113.684L98.5588 113.695Z" fill="black"/>
<g style="mix-blend-mode:overlay" opacity="0.3">
<path d="M249.249 98.5385C243.956 98.2999 239.772 98.5651 238.759 103.078C237.746 107.591 236.002 122.97 236.415 129.695C236.479 129.96 237.948 149.82 241.978 150.701C246.009 151.581 246.3 150.017 249.954 143.897C253.608 137.777 260.502 116.028 259.908 107.708C259.707 104.865 254.541 98.7666 249.249 98.5332V98.5385Z" fill="black"/>
</g>
<path d="M249.074 115.875C247.186 116.241 245.632 117.163 245.537 119.226C245.484 119.698 245.436 120.329 245.367 120.791C244.906 124.063 244.062 127.107 242.98 130.305C242.307 131.975 241.787 133.582 240.202 134.828C238.356 136.149 236.293 135.104 235.307 133.508C234.612 132.564 234.814 131.233 235.763 130.538C236.633 129.902 237.826 130.018 238.552 130.777C238.743 130.978 238.897 131.121 238.982 131.18C239.051 131.249 239.093 131.164 238.69 131.015C238.499 130.952 238.192 130.936 237.964 130.989C237.73 131.042 237.592 131.121 237.524 131.164C237.391 131.249 237.449 131.206 237.502 131.1C239.12 127.632 239.56 123.554 240.642 119.826C240.764 119.375 240.971 118.738 241.103 118.282C241.612 116.156 243.309 114.13 245.473 113.568C246.677 113.186 250.665 113.059 250.134 115.058C249.991 115.562 249.53 115.774 249.069 115.875H249.074Z" fill="black"/>
<path d="M239.836 151.586C238.759 149.858 238.086 147.911 237.868 145.885C237.354 141.182 236.5 131.445 236.415 118.224C236.415 118.224 235.98 96.9264 248.008 98.3742C254.637 98.9257 260.105 104.526 259.24 115.238C258.662 122.461 256.371 127.812 253.258 135.502C250.569 145.684 246.825 148.94 239.841 151.592L239.836 151.586Z" stroke="black" stroke-width="6.36383" stroke-linecap="round"/>
<path d="M108.147 151.586C109.223 149.857 109.897 147.911 110.114 145.885C110.629 141.181 111.483 131.445 111.567 118.224C111.567 118.224 112.002 96.9263 99.9747 98.3741C93.3457 98.9256 87.8781 104.526 88.7426 115.238C89.3206 122.461 91.6116 127.812 94.7246 135.502C97.4133 145.684 101.157 148.94 108.142 151.592L108.147 151.586Z" stroke="black" stroke-width="6.36383"/>
<path d="M121.113 100.676C121.113 100.676 142.321 94.6725 163.046 100.676C163.046 100.676 171.754 131.604 143.53 132.802C115.306 134.001 121.119 100.676 121.119 100.676H121.113Z" stroke="black" stroke-width="6.36383" stroke-linecap="round" stroke-linejoin="round"/>
<path d="M136.768 112.958C136.768 112.958 144.405 117.073 154.221 112.958" stroke="black" stroke-width="5.30319" stroke-linecap="round" stroke-linejoin="round"/>
<path d="M184.932 123.776C187.896 128.252 195.438 132.426 204.458 132.808C232.682 134.006 226.87 100.681 226.87 100.681C226.87 100.681 205.662 94.6778 184.937 100.681C184.937 100.681 184.338 104.468 184.927 123.776" stroke="black" stroke-width="6.36383" stroke-linecap="round" stroke-linejoin="round"/>
<path d="M211.214 112.958C211.214 112.958 203.578 117.073 193.762 112.958" stroke="black" stroke-width="5.30319" stroke-linecap="round" stroke-linejoin="round"/>
<path d="M164.52 137.183C164.737 140.147 164.196 142.762 165.512 145.249C168.545 150.674 178.902 151.273 182.567 146.156C183.192 145.238 183.5 144.151 183.564 142.916L183.606 143.632C183.118 140.678 182.705 137.719 182.392 134.765C181.458 125.898 180.997 117.084 180.944 108.159L180.981 108.657C180.954 108.673 181.018 108.694 180.976 108.657C180.599 108.159 180.005 107.925 179.146 107.607C176.288 106.69 172.353 106.711 169.447 107.543C168.587 107.782 167.871 108.111 167.415 108.477C167.437 108.45 167.532 108.254 167.495 108.079C167.495 109.834 166.068 111.261 164.313 111.261C162.558 111.261 161.131 109.834 161.131 108.079C161.428 99.0158 179.539 98.6022 184.889 103.046C186.47 104.245 187.674 106.133 187.769 108.159C187.796 110.985 187.87 113.902 187.986 116.776C188.225 122.53 188.623 128.289 189.249 134.006C189.567 136.875 189.954 139.723 190.389 142.55C190.521 145.09 189.71 147.747 188.23 149.953C184.269 155.649 176.781 157.277 170.375 155.866C164.934 154.752 159.763 150.69 158.596 144.984C157.875 141.85 158.485 138.244 160.346 135.725C161.699 133.858 164.594 134.924 164.52 137.172V137.183Z" fill="black"/>
<path d="M226.87 100.676C230.147 101.556 233.329 102.452 236.352 103.524" stroke="black" stroke-width="6.36383"/>
<path d="M111.774 103.672C114.75 102.606 117.889 101.556 121.113 100.676" stroke="black" stroke-width="6.36383"/>
<path d="M95.9072 89.3322C97.8376 93.6808 100.42 94.2323 100.42 95.8975C100.42 97.7059 100.569 98.3264 99.9748 98.3741" stroke="black" stroke-width="6.36383"/>
<path d="M248.003 98.3741C247.409 98.3264 247.557 97.7059 247.557 95.8975C247.557 94.2323 250.14 93.6755 252.07 89.3322" stroke="black" stroke-width="6.36383"/>
<path d="M98.7339 92.6998L101.672 98.0348L111.748 102.654L114.659 81.4093L98.7339 89.327V92.6998Z" fill="black"/>
<path d="M249.249 92.6998L246.311 98.0348L236.235 102.654L233.318 81.4093L249.249 89.327V92.6998Z" fill="black"/>
<path d="M245.383 50.2689C232.501 19.4203 203.535 3.26674 174.31 3.18188H173.673C144.447 3.26674 115.481 19.4203 102.6 50.2689" fill="#C65F28"/>
<path d="M245.383 50.2689C232.501 19.4203 203.535 3.26674 174.31 3.18188H173.673C144.447 3.26674 115.481 19.4203 102.6 50.2689" stroke="black" stroke-width="6.36383"/>
<path d="M124.104 39.0261C126.751 33.7123 130.208 28.897 134.143 24.4848C135.432 23.0264 136.821 21.6529 138.221 20.3111C138.46 20.0778 138.847 20.0884 139.075 20.3271C139.298 20.5551 139.298 20.921 139.086 21.1491C136.588 24.0181 134.318 27.0727 132.33 30.3077C130.378 33.4843 128.596 36.873 127.291 40.3466C126.401 42.5633 123.155 41.2269 124.104 39.0208V39.0261Z" fill="black"/>
<path d="M141.239 36.889C143.392 30.2441 146.648 24.0606 150.673 18.3862C151.983 16.5088 153.452 14.7429 154.937 13.0194C155.42 12.4572 156.321 13.136 155.892 13.7565C152.026 19.1976 149.003 25.2273 146.903 31.554C146.229 33.5904 145.588 35.7965 145.185 37.8595C144.553 40.6118 140.523 39.6308 141.239 36.889Z" fill="black"/>
<path d="M160.664 34.0624C162.096 28.038 164.005 22.2204 166.44 16.5407C167.235 14.658 168.142 12.8231 169.081 11.0094C169.234 10.7125 169.6 10.5958 169.897 10.7496C170.184 10.8981 170.3 11.2375 170.178 11.5239C167.909 17.0869 166.328 22.9098 165.156 28.7963C164.774 30.7585 164.424 32.7631 164.175 34.6935C163.767 37.1223 160.203 36.4913 160.67 34.0624H160.664Z" fill="black"/>
<path d="M220.675 40.3254C217.96 33.3199 213.813 26.8341 208.892 21.1544C208.388 20.587 209.194 19.7862 209.761 20.3112C215.452 25.7205 220.347 31.9835 223.879 39.0262C224.828 41.2429 221.55 42.5846 220.681 40.3254H220.675Z" fill="black"/>
<path d="M202.793 37.8276C201.913 33.5851 200.438 29.3584 198.683 25.3757C197.781 23.3499 196.8 21.3559 195.692 19.4256C194.61 17.4687 193.369 15.6073 192.091 13.7618C191.672 13.1466 192.542 12.4519 193.046 13.0193C196.069 16.4558 198.757 20.1945 201.032 24.1772C202.766 27.1682 204.273 30.3077 205.556 33.5267C205.98 34.6245 206.378 35.6745 206.744 36.889C207.073 37.9655 206.463 39.1004 205.386 39.4239C204.23 39.7845 202.989 39.0208 202.793 37.8223V37.8276Z" fill="black"/>
<path d="M183.808 34.6617C183.288 30.7638 182.482 26.7811 181.511 22.9469C180.536 19.0597 179.316 15.2414 177.81 11.5291C177.518 10.8291 178.536 10.3306 178.902 11.0147C181.755 16.4505 183.946 22.2098 185.717 28.0857C186.305 30.0585 186.841 32.0101 187.318 34.0677C187.785 36.5072 184.189 37.1383 183.808 34.667V34.6617Z" fill="black"/>
<path d="M173.509 72.8552C204.617 72.8552 233.329 78.2433 252.07 89.3322C253.433 87.0943 253.863 85.1215 254.107 78.7046C254.478 68.6445 254.43 65.102 253.29 60.6738C251.816 54.9676 247.748 52.9417 246.009 51.1228C227.495 41.699 201.854 35.8655 173.509 35.8655H174.469C146.123 35.8655 120.482 41.699 101.969 51.1228C100.229 52.9417 96.1619 54.9676 94.6876 60.6738C93.5474 65.102 93.4997 68.6445 93.8709 78.7046C94.1149 85.1268 94.5444 87.0943 95.9073 89.3322C114.649 78.2486 143.36 72.8552 174.469 72.8552H173.509Z" fill="#C65F28" stroke="black" stroke-width="6.36383"/>
<path d="M240.605 57.3911C241.188 57.6934 241.278 58.245 241.284 58.5472C241.135 63.2671 240.631 67.9869 239.777 72.6484C239.602 73.4121 238.934 73.4651 238.574 72.9401C238.415 72.7068 238.351 72.4257 238.393 72.1022C239.226 67.4301 239.719 62.7102 239.868 57.9851C239.915 57.354 240.345 57.2798 240.605 57.3858" fill="black"/>
<path d="M227.257 52.7985C227.787 52.9523 228.121 53.3713 228.137 53.891C228.015 58.6214 227.612 63.3678 226.928 68.0876C226.758 68.9414 225.782 68.9838 225.337 68.3475C225.13 68.0558 225.157 67.7853 225.167 67.6686C225.825 62.9435 226.217 58.1971 226.334 53.4614C226.382 52.825 226.912 52.7137 227.257 52.7932" fill="black"/>
<path d="M211.098 49.2826C211.702 49.3939 212.105 49.797 212.127 50.3114C212.042 55.0471 211.755 59.82 211.278 64.577C211.135 65.4732 209.915 65.5475 209.411 64.8846C209.221 64.63 209.226 64.402 209.231 64.2906C209.682 59.5283 209.952 54.7555 210.032 50.0197C210.08 49.378 210.695 49.2295 211.098 49.2879" fill="black"/>
<path d="M192.982 46.9279C193.64 46.9968 194.085 47.3733 194.112 47.8824C194.064 52.6235 193.915 57.407 193.666 62.1904C193.555 63.1556 192.15 63.267 191.603 62.5564C191.439 62.3442 191.439 62.1639 191.434 62.0472C191.651 57.2638 191.784 52.4803 191.826 47.7392C191.874 47.0976 192.542 46.9013 192.977 46.9332" fill="black"/>
<path d="M173.758 46.3499C174.437 46.3711 174.898 46.7158 174.935 47.2249C174.93 51.9659 174.925 56.7547 174.919 61.5435C174.856 62.4928 173.387 62.6996 172.814 62.0473C172.634 61.8458 172.623 61.6708 172.613 61.5541C172.586 56.7653 172.57 51.9765 172.575 47.2355C172.618 46.5885 173.307 46.3499 173.758 46.3499Z" fill="black"/>
<path d="M154.264 47.1029C154.942 47.0764 155.404 47.3893 155.441 47.8984C155.473 52.6394 155.616 57.4229 155.86 62.2064C155.849 63.1768 154.423 63.4897 153.792 62.8587C153.601 62.6677 153.579 62.4927 153.569 62.3814C153.293 57.6032 153.134 52.8197 153.097 48.0787C153.134 47.4264 153.813 47.1453 154.264 47.1082" fill="black"/>
<path d="M135.437 49.7811C136.063 49.7068 136.487 49.9879 136.53 50.4917C136.604 55.2275 136.885 59.995 137.373 64.752C137.41 65.7066 136.095 66.1149 135.501 65.5475C135.321 65.3725 135.289 65.1974 135.268 65.0861C134.753 60.3344 134.451 55.5722 134.377 50.8364C134.403 50.1841 135.024 49.85 135.437 49.7864" fill="black"/>
<path d="M119.464 53.6311C119.952 53.5251 120.307 53.7849 120.344 54.2781C120.45 59.0086 120.859 63.7496 121.553 68.4642C121.644 69.371 120.7 69.8748 120.153 69.4187C119.947 69.2437 119.899 69.021 119.878 68.9149C119.162 64.2057 118.743 59.4647 118.631 54.7395C118.647 54.0872 119.14 53.716 119.464 53.6311Z" fill="black"/>
<path d="M107.283 58.3563C107.802 58.1972 107.908 58.6639 107.93 58.9556C108.062 63.6754 108.566 68.39 109.415 73.0515C109.536 73.9 108.937 74.4621 108.497 74.1227C108.29 73.9636 108.232 73.7038 108.211 73.5924C107.341 68.9415 106.832 64.2323 106.694 59.5124C106.694 58.8548 107.049 58.4624 107.283 58.3616" fill="black"/>
</g>
<defs>
<clipPath id="clip0_32_809">
<rect width="349.199" height="456" fill="white" transform="translate(0.635498)"/>
</clipPath>
</defs>
</svg>
